<?xml version="1.0" standalone="no"?>
<!DOCTYPE svg PUBLIC "-//W3C//DTD SVG 1.1//EN" "http://www.w3.org/Graphics/SVG/1.1/DTD/svg11.dtd" >
<svg xmlns="http://www.w3.org/2000/svg">
<metadata>
This is a custom SVG webfont generated by Font Squirrel.
Copyright   : Copyright c 2010 by PJ Onori All rights reserved
Designer    : PJ Onori
Foundry     : PJ Onori
Foundry URL : httpsomerandomdudecom
</metadata>
<defs>
<font id="webfontzGaFcuFj" horiz-adv-x="1550" >
<font-face units-per-em="2048" ascent="1638" descent="-410" />
<missing-glyph horiz-adv-x="512" />
<glyph unicode=" "  horiz-adv-x="512" />
<glyph unicode="&#x09;" horiz-adv-x="512" />
<glyph unicode="&#xa0;" horiz-adv-x="512" />
<glyph unicode="!" horiz-adv-x="1501" d="M0 686l686 686l686 -686h-172v-686h-1028v686h-172zM342 170h258v258h172v-258h258v616l-344 242l-344 -242v-616z" />
<glyph unicode="&#x22;" horiz-adv-x="1667" d="M0 180v514q0 104 41 199q43 98 109 164q70 70 163 110q90 39 201 39v-170q-74 0 -133 -26q-63 -29 -108.5 -74t-74 -108.5t-28.5 -133.5h344v-514h-514zM856 180v514q0 104 41 199q43 98 109 164q70 70 163 110q90 39 201 39v-170q-74 0 -133 -26q-63 -29 -108.5 -74 t-74 -108.5t-28.5 -133.5h344v-514h-514z" />
<glyph unicode="#" d="M0 684q0 98 25 184q23 76 69 162q41 74 106.5 139.5t139.5 106.5q84 47 164 70q86 25 180 24q96 0 182 -24q80 -23 164 -70q74 -41 139.5 -106.5t106.5 -139.5q47 -86 70 -162q25 -86 24 -184q0 -145 -53 -266q-55 -125 -147.5 -217t-217.5 -148q-121 -53 -268 -53 q-145 0 -266 53q-125 55 -217 147.5t-148 217.5q-53 121 -53 266zM344 686h254v-344h172v344h256l-342 340z" />
<glyph unicode="$" d="M0 686q0 145 53 266q55 127 147.5 219.5t219.5 147.5q121 53 266 53t266 -53q127 -55 219.5 -147.5t147.5 -219.5q53 -121 53 -266t-53 -266q-55 -127 -147.5 -219t-219.5 -148q-121 -53 -266 -53t-266 53q-127 55 -219 147.5t-148 219.5q-53 121 -53 266zM342 600h344 v-258l342 344l-342 342v-256h-344v-172z" />
<glyph unicode="%" d="M0 686q0 145 53 266q55 127 147.5 219.5t219.5 147.5q121 53 266 53t266 -53q127 -55 219.5 -147.5t147.5 -219.5q53 -121 53 -266t-53 -266q-55 -127 -147.5 -219t-219.5 -148q-121 -53 -266 -53t-266 53q-127 55 -219 147.5t-148 219.5q-53 121 -53 266zM342 684 l344 -342l342 342h-256v344h-172v-344h-258z" />
<glyph unicode="&#x26;" d="M0 684q0 147 53 268q55 125 147.5 217.5t217.5 147.5q121 53 266 53q98 0 184 -24q76 -23 162 -70q74 -41 139.5 -106.5t106.5 -139.5q47 -84 70 -164q25 -86 24 -182q0 -94 -24 -180q-23 -80 -70 -164q-41 -74 -106.5 -139.5t-139.5 -106.5q-86 -47 -162 -69 q-86 -25 -184 -25q-145 0 -266 53q-125 55 -217 147.5t-148 217.5q-53 121 -53 266zM258 684l170 -170v84h514v-84l172 170l-172 172v-86h-514v86z" />
<glyph unicode="'" horiz-adv-x="1667" d="M0 180v514l514 512v-1026h-514zM856 180v514l514 512v-1026h-514z" />
<glyph unicode="(" d="M0 686q0 145 53 266q55 127 147.5 219.5t219.5 147.5q121 53 266 53t266 -53q127 -55 219.5 -147.5t147.5 -219.5q53 -121 53 -266t-53 -266q-55 -127 -147.5 -219t-219.5 -148q-121 -53 -266 -53t-266 53q-127 55 -219 147.5t-148 219.5q-53 121 -53 266zM256 686 l172 -172v86h172v-172h-86l172 -172l170 172h-84v172h170v-86l172 172l-172 172v-86h-170v172h84l-170 170l-172 -170h86v-172h-172v86z" />
<glyph unicode=")" horiz-adv-x="1540" d="M0 1372l1028 -342l-256 -258l600 -600l-172 -172l-600 600l-258 -256z" />
<glyph unicode="*" d="M0 684q0 98 25 184q23 76 69 162q41 74 106.5 139.5t139.5 106.5q84 47 164 70q86 25 180 24q96 0 182 -24q80 -23 164 -70q74 -41 139.5 -106.5t106.5 -139.5q47 -86 70 -162q25 -86 24 -184q0 -145 -53 -266q-55 -125 -147.5 -217t-217.5 -148q-121 -53 -268 -53 q-145 0 -266 53q-125 55 -217 147.5t-148 217.5q-53 121 -53 266zM514 428l170 -170l172 170h-86v514h86l-172 172l-170 -172h84v-514h-84z" />
<glyph unicode="+" horiz-adv-x="1540" d="M0 514v342h514v514h342v-514h514v-342h-514v-514h-342v514h-514z" />
<glyph unicode="," horiz-adv-x="1667" d="M0 215v342q0 37 24.5 61.5t61.5 24.5h84v172q0 102 41 201q39 92 111 164q70 70 163 110q90 39 201 39q109 0 201 -39q88 -37 162 -110q72 -72 110 -164q41 -98 41 -201v-172h86q37 0 61.5 -24.5t24.5 -61.5v-342q0 -35 -24 -59q-27 -27 -62 -27h-258v514v172 q0 76 -27 135q-29 63 -73.5 108.5t-108.5 74.5q-59 27 -133 26.5t-133 -26.5q-63 -29 -108.5 -74t-74 -108.5t-28.5 -135.5v-172v-514h-256q-35 0 -61 27q-25 24 -25 59z" />
<glyph unicode="-" horiz-adv-x="1585" d="M0 559v344h1372v-344h-1372z" />
<glyph unicode="." horiz-adv-x="1574" d="M0 86q0 35 24.5 59.5t61.5 24.5q35 0 59.5 -24.5t24.5 -59.5q0 -37 -24.5 -61.5t-59.5 -24.5q-37 0 -61.5 24.5t-24.5 61.5zM0 510v172h1370v-172h-1370zM0 856v170h856v-170h-856zM0 1198v172h1370v-172h-1370zM342 86q0 16 6 33q6 14 18.5 26.5t28.5 18.5q14 6 31 6 q39 0 63.5 -24.5t24.5 -59.5q0 -20 -6 -34.5t-18.5 -27t-28.5 -18.5q-14 -6 -35 -6q-16 0 -31 6q-16 6 -28.5 18.5t-18.5 27t-6 34.5zM684 86q0 33 27 59q25 25 59 25q37 0 61.5 -24.5t24.5 -59.5q0 -37 -24.5 -61.5t-61.5 -24.5q-35 0 -59 25q-27 26 -27 61z" />
<glyph unicode="/" horiz-adv-x="1554" d="M0 86q0 35 25 59l174 177q-37 57 -58 133q-18 71 -12 141q6 66 39 139q31 68 86 123l258 256q68 68 139 96q78 31 162 31q61 0 123 -18q63 -18 115 -54l174 174q27 27 59.5 27t59 -26.5t26.5 -59.5q0 -35 -27 -61l-174 -174q41 -61 60 -134q16 -66 10 -143 q-6 -66 -39 -139q-31 -68 -86 -123l-256 -256q-68 -68 -141 -96q-80 -31 -162 -31q-63 0 -121 18q-53 16 -112 54l-177 -174q-12 -12 -28 -19q-14 -6 -30.5 -6t-33 6t-28.5 19q-25 24 -25 61zM299 555q0 -55 27 -109l129 127q25 25 59.5 25t59 -24.5t24.5 -61.5 q0 -35 -25 -59l-127 -127q57 -27 109 -27q49 0 100 20q47 18 84 56l256 258q37 37 56 82q18 47 18 96q0 61 -25 113l-131 -131q-12 -14 -26 -21q-10 -4 -33 -4t-33 4q-18 8 -28 21q-25 25 -25 61q0 35 25 59l131 131q-25 12 -54 19q-27 6 -57 6q-52 0 -98 -18 q-45 -18 -82 -56l-258 -258q-37 -37 -56 -82q-20 -51 -20 -100z" />
<glyph unicode="0" horiz-adv-x="1054" d="M0 942q0 88 35 168t92 137q58 58 135 92q74 33 166 33q94 0 168 -33q80 -35 137.5 -92t91.5 -137q33 -74 33 -168q0 -104 -47 -194q-46 -89 -123 -148q-41 -31 -61 -61q-27 -39 -27 -84v-111h-342v111q0 47 -25 84q-18 27 -63 61q-77 58 -123 148q-47 90 -47 194z M172 942q0 -61 27 -113q31 -59 75 -92q74 -55 107 -112q35 -59 43 -109h10q4 16 17 53q8 25 28 56q25 35 43 57q20 23 64 55q45 33 76 92q25 47 24 113q0 57 -20 100q-23 49 -55.5 82t-82.5 56q-43 20 -100 20q-55 0 -98 -20q-49 -23 -82 -55.5t-55 -82.5q-21 -43 -21 -100z M258 0v172h342v-172h-342z" />
<glyph unicode="1" horiz-adv-x="1585" d="M0 0v1030h342v342h1030v-1030h-342v-342h-1030zM172 172h686v170h-516v344h-170v-514zM514 514h686v516h-686v-516z" />
<glyph unicode="2" horiz-adv-x="1554" d="M0 684q0 123 39 225q43 115 104 195q8 -6 25 -14q12 -6 27 -7q18 0 34 7q10 4 27 20q12 12 18.5 26.5t6.5 33t-5 26.5q-8 16 -14 25q68 55 158 94q86 37 180 49q4 -37 27 -57q27 -23 57.5 -23t56.5 23q23 20 27 55q100 -12 180 -47q84 -37 156 -92q-6 -6 -14 -23 q-6 -12 -7 -31q0 -33 27 -59.5t59 -26.5q16 0 29 7q16 8 25 14q70 -90 108 -193q39 -104 39 -227q0 -145 -53 -266q-55 -125 -147.5 -217t-217.5 -148q-121 -53 -268 -53q-145 0 -266 53q-125 55 -217 147.5t-148 217.5q-53 121 -53 266zM342 684q0 -74 27 -133 q29 -63 73.5 -108.5t108.5 -73.5q59 -27 133 -27t133 27q63 29 108.5 73.5t73.5 108.5q27 59 27 133q0 80 -25 135q-29 66 -75 109l-242 241l-242 -241q-45 -45 -73 -109q-27 -59 -27 -135zM514 684q0 33 14.5 67.5t35 55t54.5 35.5q37 14 66 14q33 0 67.5 -14.5t55 -35 t35 -55t14.5 -67.5q0 -29 -14 -66q-14 -35 -35 -55t-55.5 -34.5t-67.5 -14.5q-29 0 -66 14q-35 14 -55 35t-35 55q-14 37 -14 66z" />
<glyph unicode="3" horiz-adv-x="1536" d="M0 684l684 686l686 -686l-242 -242l-272 273v-715h-342v715l-100 -101l-86 -86l-86 -86z" />
<glyph unicode="4" horiz-adv-x="1536" d="M0 514v344h715l-101 100l-86 86l-84 84l242 244l686 -686l-686 -686l-242 244l271 270h-715z" />
<glyph unicode="5" horiz-adv-x="1536" d="M0 686l244 244l270 -273v715h344v-715l186 187l84 86l244 -244l-686 -686z" />
<glyph unicode="6" horiz-adv-x="1560" d="M0 684l684 686l242 -242l-271 -272h715v-344h-715l187 -184l84 -86l-242 -242z" />
<glyph unicode="7" horiz-adv-x="1544" d="M0 686l256 258v-172h258v-172h-258v-170zM856 600v172h256v172l258 -258l-258 -256v170h-256z" />
<glyph unicode="8" horiz-adv-x="700" d="M0 256h170v258h172v-258h172l-258 -256zM0 1114l256 258l258 -258h-172v-258h-172v258h-170z" />
<glyph unicode="9" horiz-adv-x="1521" d="M0 686l256 256v-170h258v-172h-258v-172zM428 256h172v258h172v-258h172l-258 -256zM428 1114l258 258l258 -258h-172v-258h-172v258h-172zM858 600v172h256v170l258 -256l-258 -258v172h-256z" />
<glyph unicode=":" horiz-adv-x="1667" d="M0 0v514l197 -197l196 197l121 -121l-197 -196l197 -197h-514zM0 856v514h514l-197 -196l195 -193l-123 -123l-192 195zM856 0l197 197l-197 196l121 121l197 -197l196 197v-514h-514zM856 1370h514v-514l-196 197l-193 -195l-123 123l195 193z" />
<glyph unicode=";" horiz-adv-x="1564" d="M0 123l197 194l-197 197h514v-514l-197 197l-194 -197zM0 856l197 199l-195 192l121 121l194 -194l197 196v-514h-514zM856 0v514h514l-196 -197l196 -194l-121 -123l-194 197zM856 856v514l199 -196l192 194l121 -121l-194 -192l196 -199h-514z" />
<glyph unicode="&#x3c;" horiz-adv-x="1585" d="M0 686v170h86v430q0 16 6 32.5t18.5 29t29 18.5t32.5 6q37 0 61.5 -24.5t24.5 -61.5v-430h84v-170h-84v-600q0 -37 -24.5 -61.5t-61.5 -24.5q-16 0 -32.5 6t-29 18.5t-18.5 29t-6 32.5v600h-86zM514 342v172h86v772q0 35 27 62q25 25 59 24q37 0 61.5 -24.5t24.5 -61.5 v-772h86v-172h-86v-256q0 -37 -24.5 -61.5t-61.5 -24.5q-35 0 -59 25q-27 27 -27 61v256h-86zM1030 856v172h84v258q0 12 8 33q6 16 18.5 28.5t26.5 18.5q16 6 33 6q37 0 61.5 -24.5t24.5 -61.5v-258h86v-172h-86v-770q0 -37 -24.5 -61.5t-61.5 -24.5q-16 0 -33 6 q-14 6 -26.5 18.5t-18.5 28.5q-8 20 -8 33v770h-84z" />
<glyph unicode="=" d="M0 686q0 145 53 266q55 127 147.5 219.5t219.5 147.5q121 53 266 53t266 -53q127 -55 219.5 -147.5t147.5 -219.5q53 -121 53 -266t-53 -266q-55 -127 -147.5 -219t-219.5 -148q-121 -53 -266 -53t-266 53q-127 55 -219 147.5t-148 219.5q-53 121 -53 266zM342 600h258 v-258h172v258h256v172h-256v256h-172v-256h-258v-172z" />
<glyph unicode="&#x3e;" horiz-adv-x="1579" d="M0 0v170h1026v-170h-1026zM0 342v172h1370v-172h-1370zM0 856v170h856v-170h-856zM0 1198v172h1370v-172h-1370zM1198 86q0 33 27 59q25 25 59 25q37 0 61.5 -24.5t24.5 -59.5q0 -37 -24.5 -61.5t-61.5 -24.5q-35 0 -59 25q-27 26 -27 61z" />
<glyph unicode="?" horiz-adv-x="1574" d="M0 0v170v1028l170 172v-1200h1200l-172 -170h-1028h-170zM342 342v342l172 172l170 -172l342 342l344 -342v-342h-1028z" />
<glyph unicode="@" horiz-adv-x="1544" d="M0 686q0 145 53 266q55 127 147.5 219.5t219.5 147.5q121 53 266 53t266 -53q127 -55 219.5 -147.5t147.5 -219.5q53 -121 53 -266q0 -94 -24 -180q-25 -88 -68 -164h-252q-39 0 -76 20q-29 16 -57 52q-45 -35 -96 -54q-53 -18 -113 -18q-74 0 -133 27 q-63 29 -108.5 73.5t-74 108t-28.5 133.5q0 72 28.5 135.5t73.5 108.5t109 73q59 27 133 27h342v-514h139l2 -2q10 25 23 86q8 39 8 88q0 109 -39 201t-110.5 163.5t-163.5 110.5t-201 39q-111 0 -201 -39q-94 -41 -163 -110q-72 -72 -111 -164q-41 -98 -41 -201 q0 -104 41 -198.5t110.5 -164t164 -110.5t201 -41t200.5 41t164 111l120 -123q-94 -94 -219 -147.5t-266 -53.5q-96 0 -182 25q-92 27 -164 69q-82 49 -139 107q-66 66 -107 139q-47 84 -69 164q-25 86 -25 182zM514 684q0 -29 14 -66q12 -31 37 -55q27 -27 53 -37 q37 -14 68 -14t66 14q31 12 55 37t36.5 55.5t12.5 65.5v88v84h-170q-31 0 -68 -14q-27 -10 -53 -37t-37 -53q-14 -35 -14 -68z" />
<glyph unicode="A" horiz-adv-x="1589" d="M0 1028v172h340v172h172v-172h342v172h172v-172h346v-172h-346h-172h-342h-172h-340zM172 0v170h1028l-170 -170h-858zM172 342v172h1028v-172h-1028zM172 686v172h1028v-172h-1028z" />
<glyph unicode="B" horiz-adv-x="1705" />
<glyph unicode="E" horiz-adv-x="1501" d="M0 172v1028q0 33 14.5 68t36.5 55q29 25 53 35q35 14 68 14h1028v-172h172l-172 -174l170 -170h-170v-856h-1028q-33 0 -68 14q-27 10 -53 37t-37 53q-14 35 -14 68zM342 172h686v1028h-686v-1028zM514 856v172h342v-172h-342z" />
<glyph unicode="H" horiz-adv-x="1705" />
<glyph unicode="J" horiz-adv-x="1603" d="M0 1026q0 102 29 162q33 70 77 106q47 39 111 58q61 18 125 18h342q68 0 127 -20.5t109 -63.5q47 -41 77 -106q29 -59 29 -154v-170q0 -74 -27 -133q-29 -63 -73.5 -108.5t-108.5 -73.5q-59 -27 -133 -27q0 35 -12.5 65.5t-37 55t-55 37t-65.5 12.5h-172q-57 0 -125 21 q-59 18 -111 59q-45 37 -77 106q-29 60 -29 156zM170 1026q0 -6 4 -43q4 -31 18.5 -57.5t51.5 -48.5q33 -20 98 -21h172q84 0 156 -37q70 -37 118 -100q33 27 50 59q18 37 18 78v170q0 55 -18.5 90t-43 53.5t-55.5 24.5q-20 4 -55 4h-342q-65 0 -98 -18q-37 -20 -51 -47 q-16 -29 -19 -58q-4 -41 -4 -49zM342 342v172q0 49 8 84h164h6l3 -1q3 -1 5 -1q-14 -31 -14 -82v-172q0 -41 18 -78q18 -35 50 -57q41 57 118 98q70 37 156 37h170q39 0 74 10q31 9 49 25t29 35q12 23 14 39q0 2 3 14t3 20v29q0 25 -2 41q-4 35 -12 51q-12 23 -39 47 q-20 18 -72 29q20 43 29 78q8 39 8 88q53 -10 100 -35q51 -27 82 -63q37 -45 58 -99q20 -55 20 -137q0 -98 -29 -158q-33 -70 -77 -106q-51 -41 -111 -60q-68 -20 -127 -20h-170q-37 0 -68 -12q-27 -10 -53 -37t-37 -53q-14 -35 -14 -68q-74 0 -133 27q-63 29 -108.5 73.5 t-73.5 108.5q-27 59 -27 133z" />
<glyph unicode="L" horiz-adv-x="1323" d="M0 256v600h170v84q0 88 35 168t92 137q58 58 135 92q74 33 168 33q92 0 166 -33q77 -34 135 -92q57 -57 92 -137q33 -74 33 -168v-684q0 -61 -18 -100q-22 -46 -56 -80q-33 -33 -82 -56q-43 -20 -100 -20h-512q-57 0 -100 20q-49 23 -82 56q-34 34 -56 80q-20 43 -20 100 zM170 256q0 -12 8 -33q6 -14 18.5 -26.5t26.5 -18.5q20 -8 35 -8h512q14 0 35 8q14 6 26.5 18.5t18.5 27t6 32.5v428h-686v-428zM342 856h514v84q0 59 -20 102q-23 49 -56 82q-34 34 -80 56q-39 18 -100 18t-100 -18q-49 -23 -82 -55.5t-56 -82.5q-20 -43 -20 -102v-84z M428 426q0 14 8 34.5t17 28.5q12 12 28 19q14 6 33 6q37 0 61.5 -24.5t24.5 -63.5q0 -16 -6 -31q-6 -16 -18.5 -28.5t-28.5 -18.5q-14 -6 -32.5 -6t-33.5 6q-16 6 -28 19q-8 8 -16.5 28.5t-8.5 30.5z" />
<glyph unicode="M" horiz-adv-x="1667" d="M0 180v1028h1372v-1028h-1372zM170 350h1030v580l-332 -332q-39 -39 -86 -57q-51 -20 -96 -20.5t-96 20.5q-47 18 -86 57l-334 332v-580zM305 1036l320 -317q27 -27 61.5 -27t61.5 27l319 317h-762z" />
<glyph unicode="P" horiz-adv-x="1585" d="M0 0v485l786 787q51 51 115 76q65 25 129 24q68 0 129.5 -24.5t112.5 -75.5t76 -115q25 -65 24.5 -129t-24.5 -129q-23 -59 -76 -113l-787 -786h-485zM172 342h170v-172h74l735 737l-244 244l-735 -735v-74z" />
<glyph unicode="Q" horiz-adv-x="1595" d="M6 758q12 90 51 170q41 84 121 145.5t205 98t303 36.5q96 0 170 -8q98 -10 162 -29q74 -20 141 -59q70 -39 113 -94q47 -59 73.5 -137t26.5 -187q0 -78 -12 -127q-16 -63 -33 -108q-20 -59 -43 -109h-684h-108q-10 0 -78 -6q-29 -2 -60 -14q-12 -4 -51 -31 q-18 -12 -57 -47l-74 -72q-31 31 -66 94q-41 74 -61 140q-29 88 -39 166q-6 45 -6 89t6 89zM172 633q2 -45 16 -96q16 -61 27 -91q45 29 72 41q25 10 82 23q29 6 100 10q37 2 131 2h569q14 43 22.5 84t8.5 88q0 55 -4 84q-6 45 -22 78q-20 41 -52 72q-33 33 -92 57 q-57 25 -141 39q-70 12 -203 12q-401 0 -487 -211q-18 -47 -25 -94q-3 -27 -3 -57q0 -19 1 -41z" />
<glyph unicode="V" horiz-adv-x="1579" d="M0 694.5q0 73.5 27 132.5q29 63 73.5 108.5t108.5 74.5q59 27 133 26v-686q-70 0 -133 29q-68 31 -109 72q-43 43 -73 110q-27 60 -27 133.5zM514 350v686l342 170v-1026zM1026 606v172h344v-172h-344z" />
<glyph unicode="W" horiz-adv-x="1570" d="M0 514v342h203q2 8 10 25q2 4 5 12t5 12l-143 144l242 241l143 -143q8 4 24 8l25 8v207h342v-207l25 -8q16 -4 24 -8l144 143l241 -241l-141 -144l8 -24q8 -16 10 -25h203v-342h-203q-2 -8 -10 -25l-8 -24l141 -143l-241 -242l-144 141q-8 -4 -24 -8l-25 -6v-207h-342 v207l-25 6q-16 4 -24 8l-143 -141l-242 242l143 143q-2 4 -5 12t-5 12q-8 16 -10 25h-203zM514 682q0 -31 14 -68q14 -35 35 -55t55 -35q37 -14 66 -14q33 0 67.5 14.5t55 35t35.5 54.5q14 37 14 68t-14 66q-10 25 -35 53q-20 23 -55 37t-68 14q-29 0 -66 -14 q-35 -14 -55 -37q-25 -29 -35 -53q-14 -35 -14 -66z" />
<glyph unicode="X" d="M0 686q0 145 53 266q55 127 147.5 219.5t219.5 147.5q121 53 266 53t266 -53q127 -55 219.5 -147.5t147.5 -219.5q53 -121 53 -266t-53 -266q-55 -127 -147.5 -219t-219.5 -148q-121 -53 -266 -53t-266 53q-127 55 -219 147.5t-148 219.5q-53 121 -53 266zM346 469 l123 -123l217 219l217 -219l121 123l-217 217l217 217l-121 121l-217 -217l-217 217l-123 -121l219 -217z" />
<glyph unicode="Y" d="M0 686q0 145 53 266q55 127 147.5 219.5t219.5 147.5q121 53 266 53t266 -53q127 -55 219.5 -147.5t147.5 -219.5q53 -121 53 -266q0 -96 -24 -182q-23 -80 -70 -164q-41 -74 -107 -139q-57 -57 -139 -107q-72 -43 -164 -69q-86 -25 -182 -25t-182 25q-92 27 -164 69 q-82 49 -139 107q-66 66 -107 139q-47 84 -69 164q-25 86 -25 182zM264 686l316 -315l532 532l-121 121l-411 -412l-195 195z" />
<glyph unicode="Z" horiz-adv-x="970" d="M0 342v942q0 37 24.5 61.5t61.5 24.5h512q37 0 61.5 -24.5t24.5 -61.5v-942q0 -74 -27 -133q-29 -63 -73.5 -108.5t-108.5 -73.5q-59 -27 -133 -27t-133 27q-63 29 -108.5 73.5t-73.5 108.5q-27 59 -27 133zM170 684h88q0 37 24.5 61.5t61.5 24.5t61.5 -24.5t24.5 -61.5 h84v514h-344v-514zM174 555q0 -16 12.5 -28.5t28.5 -12.5t28.5 12.5t12.5 28.5t-12.5 28.5t-28.5 12.5t-28.5 -12.5t-12.5 -28.5zM342 426q0 -35 24.5 -59.5t59.5 -24.5q20 0 35 6q16 6 28.5 18.5t18.5 28.5q6 14 6 31q0 39 -24.5 63.5t-63.5 24.5q-16 0 -31 -6 q-16 -6 -28.5 -18.5t-18.5 -28.5q-6 -15 -6 -35zM344 985q0 16 12.5 28.5t28.5 12.5t28.5 -12.5t12.5 -28.5t-12 -29q-14 -14 -28.5 -14t-29.5 14q-12 13 -12 29z" />
<glyph unicode="[" horiz-adv-x="1359" d="M0 684q0 86 20 160q20 76 62 143q39 66 94 121t121 94q61 37 143 60q80 23 160 22v86l170 -172l-170 -172v86q-94 0 -168 -33q-77 -34 -135 -92t-92 -135q-35 -80 -35 -168q0 -90 33 -164q35 -78 94 -137l-121 -123q-84 84 -131 195q-45 104 -45 229zM428 170l172 172 v-86q86 0 166 35q77 34 135 92t92 135q33 74 33 166q0 90 -30.5 166t-92.5 137l121 123q80 -80 129 -195q45 -104 45 -231q0 -84 -20 -158q-20 -76 -62 -143q-45 -76 -92 -123t-123 -92q-68 -41 -143 -62q-74 -20 -158 -20v-86z" />
<glyph unicode="\" horiz-adv-x="1054" d="M0 942q0 82 31 162q29 74 96.5 141.5t140.5 95.5q80 31 160 31q82 0 162 -31q74 -29 141 -96q66 -66 94 -141q31 -80 31 -162q0 -80 -30.5 -160t-94.5 -143q-86 -88 -151 -190q-31 -47 -56 -95q-31 -57 -49 -108q-20 -53 -33 -119q-14 -72 -14 -127q0 66 -12 127 q-10 53 -35 119q-18 51 -49 108q-25 47 -56 95q-63 98 -149 190q-68 68 -96 143q-31 80 -31 160zM170 942q0 -45 20 -96q18 -45 58 -84l18 -21q16 -16 41 -47l58 -71q27 -37 63 -95q16 27 66 95l57 71l23.5 27.5t17.5 19.5l20 23q35 35 54 82q20 51 20 96q0 49 -20 100 q-18 45 -56 82q-39 39 -84 58q-46 18 -98 18t-98 -18q-41 -16 -82 -57.5t-58 -82.5q-20 -51 -20 -100zM342 942q0 35 27 62q25 25 59 24q37 0 61.5 -24.5t24.5 -61.5q0 -16 -6 -33q-6 -14 -18.5 -26.5t-26.5 -18.5q-20 -8 -35 -8q-12 0 -33 8q-14 6 -26.5 18.5t-18.5 26.5 q-8 21 -8 33z" />
<glyph unicode="]" horiz-adv-x="1570" d="M0 702q0 115 39 228q35 104 104 194q66 86 162 154q90 63 203 94q-45 -78 -64 -149q-23 -84 -22 -166q0 -131 49 -248q47 -113 135 -201q90 -90 203 -137q117 -49 248 -49q82 0 166 22q72 18 149 64q-31 -109 -96 -203q-68 -96 -152 -160q-88 -68 -194 -106 q-104 -39 -230 -39q-98 0 -186 25q-90 25 -168 71q-82 49 -141 109q-57 57 -109 143q-47 78 -71.5 168t-24.5 186zM172 702q0 -117 41 -206q43 -96 114.5 -168t168.5 -115q90 -41 204 -41q80 0 148 21q61 18 133 61q-156 16 -272.5 73.5t-223.5 159.5q-94 92 -157 222 q-61 125 -74 272q-39 -61 -61 -133q-21 -68 -21 -146z" />
<glyph unicode="^" d="M0 686q0 145 53 266q55 127 147.5 219.5t219.5 147.5q121 53 266 53t266 -53q127 -55 219.5 -147.5t147.5 -219.5q53 -121 53 -266q0 -96 -24 -182q-23 -80 -70 -164q-41 -74 -107 -139q-57 -57 -139 -107q-72 -43 -164 -69q-86 -25 -182 -25t-182 25q-92 27 -164 69 q-82 49 -139 107q-66 66 -107 139q-47 84 -69 164q-25 86 -25 182zM342 686l342 -342v256h344v172h-344v258z" />
<glyph unicode="_" d="M0 684q0 147 53 268q55 125 147.5 217.5t217.5 147.5q121 53 266 53q147 0 268 -53q125 -55 217.5 -147.5t147.5 -217.5q53 -121 53 -268q0 -145 -53 -266q-55 -125 -147.5 -217t-217.5 -148q-121 -53 -268 -53q-145 0 -266 53q-125 55 -217 147.5t-148 217.5 q-53 121 -53 266zM342 598h684v172h-684v-172z" />
<glyph unicode="`" d="M0 686q0 145 53 266q55 127 147.5 219.5t219.5 147.5q121 53 266 53q98 0 184 -24q76 -23 162 -70q74 -41 139 -107q61 -61 109 -139q39 -66 68 -164q25 -86 24.5 -182t-24.5 -182q-29 -98 -68 -164q-47 -78 -109 -139q-66 -66 -139 -107q-86 -49 -164 -69 q-90 -25 -182 -25q-145 0 -266 53q-127 55 -219 147.5t-148 219.5q-53 121 -53 266zM172 686q0 -86 24.5 -159.5t71.5 -139.5l715 717q-63 45 -137 70q-80 27 -160 26q-104 0 -198.5 -41t-164 -110.5t-110.5 -164t-41 -198.5zM389 266q63 -45 139 -69q84 -27 158 -27 q106 0 200.5 41t164 110.5t110.5 163.5q39 90 39 201q0 80 -24 158q-25 76 -70 139z" />
<glyph unicode="a" horiz-adv-x="1673" d="M0 0v1200h172v-1028h1028v1028h172v-1200h-1372zM258 342v172h170v-172h-170zM258 686v172h170v-172h-170zM342 1114v172q0 14 8 35q6 14 18.5 26.5t27 18.5t32.5 6q37 0 61.5 -24.5t24.5 -61.5v-172q0 -16 -6 -33q-6 -14 -18.5 -26.5t-26.5 -18.5q-20 -8 -35 -8 q-12 0 -33 8q-14 6 -26.5 18.5t-18.5 26.5q-8 21 -8 33zM600 342v172h172v-172h-172zM600 686v172h172v-172h-172zM858 1114v172q0 37 24.5 61.5t61.5 24.5q18 0 32.5 -6t27.5 -18q16 -16 20 -27q6 -14 6 -35v-172q0 -16 -6 -33q-4 -10 -20 -26q-12 -12 -27 -19 q-20 -8 -32.5 -8t-33.5 8q-16 6 -28.5 18.5t-18.5 26.5q-6 17 -6 33zM944 342v172h170zM944 686v172h170v-172h-170z" />
<glyph unicode="b" horiz-adv-x="1560" d="M0 0l598 514l-256 170l1028 686l-600 -686l256 -170z" />
<glyph unicode="c" d="M0 684q0 147 53 268q55 125 147.5 217.5t217.5 147.5q121 53 266 53q147 0 268 -53q125 -55 217.5 -147.5t147.5 -217.5q53 -121 53 -268q0 -145 -53 -266q-55 -125 -147.5 -217t-217.5 -148q-121 -53 -268 -53q-145 0 -266 53q-125 55 -217 147.5t-148 217.5 q-53 121 -53 266zM170 684q0 -104 41 -198.5t110.5 -164t164 -110.5t198.5 -41q102 0 201 41q92 39 164 111q70 70 110 163q39 90 39 199t-39 201t-110.5 163.5t-163.5 110.5t-201 39t-199 -39q-94 -41 -163 -110q-72 -72 -111 -164q-41 -99 -41 -201zM598 684v342h172v-305 l148 -148l-121 -120l-168 168q-10 8 -23 28q-8 15 -8 35z" />
<glyph unicode="d" horiz-adv-x="1673" d="M0 2v1370h944l428 -430v-942l-340 285l-342 -285l-344 285zM172 344l174 139l344 -282l338 278l2 2l2 2l170 -139v344h-516v514h-514v-858zM858 860h344l-344 342v-342z" />
<glyph unicode="e" horiz-adv-x="1495" d="M0 170v1030q0 33 14 68q10 25 35 53q20 23 55 37t66 14h1030v-1372h-1030q-31 0 -65.5 14.5t-55 35t-35 55t-14.5 65.5zM342 170h686v1030h-170v-346l-174 172l-170 -170v344h-172v-1030z" />
<glyph unicode="f" horiz-adv-x="1531" d="M0 283l391 391q-6 12 -26 92q-12 45 -13 96q0 104 41 199q41 96 109 160q74 70 162 108q94 41 198 41q102 0 196.5 -41t162.5 -108q70 -70 108 -160q41 -94 41 -199q0 -102 -41 -196.5t-108.5 -162t-161.5 -108.5t-197 -41q-47 0 -98 11q-47 10 -90 26l-393 -391z M524 862.5q0 -71.5 27 -131t74 -106.5q43 -43 106 -72q59 -27 131 -27t131 27q63 29 107 72q47 47 74 106q25 55 24.5 131t-24.5 131q-29 63 -74 109q-43 43 -107 72q-59 27 -130.5 26.5t-131.5 -26.5q-63 -29 -106 -72q-45 -45 -74 -109q-27 -59 -27 -130.5z" />
<glyph unicode="g" horiz-adv-x="1544" d="M0 801v569h569l801 -801h-569v-569zM152 862l36 -37l72 -69l92 -92l105 -105l100 -102l90 -90v352h352l-88 92l-102 100l-102 105l-95 94l-71 70l-37 34h-352v-352zM236 999.5q0 24.5 10 51.5q8 23 28 43q14 14 43 28q20 10 54 11q29 0 49 -11q25 -12 41 -28 q20 -20 28 -43q10 -27 10.5 -51.5t-10.5 -51.5q-8 -20 -28 -41q-18 -18 -41 -26q-27 -10 -49 -11q-27 0 -53.5 10.5t-43.5 26.5q-20 20 -28 41q-10 27 -10 51.5z" />
<glyph unicode="h" horiz-adv-x="1579" d="M0 866v33q0 80 31 148q33 72 82 120q51 51 120.5 82t149.5 31q98 0 174 -45t129 -121q51 74 131 121q76 45 174 45q82 0 150 -31q72 -33 121 -82t81 -120q29 -63 29 -148v-33l-686 -786zM174 930l512 -588l512 588q-6 41 -22 69q-18 33 -46 58q-27 23 -63 39 q-35 14 -76 14q-29 0 -61 -16q-41 -20 -53 -31q-31 -25 -52 -47l-139 -150l-139 150q-33 33 -49 47q-12 10 -54 31q-33 16 -61 16q-45 0 -76 -14q-41 -18 -63 -39q-27 -25 -45 -58q-19 -34 -25 -69z" />
<glyph unicode="i" horiz-adv-x="858" d="M0 0h686v172h-86q-18 0 -33 6q-16 6 -28.5 18.5t-18.5 29t-6 32.5v600h-514v-172h86q35 0 59.5 -24.5t24.5 -61.5v-342q0 -37 -24.5 -61.5t-59.5 -24.5h-86v-172zM170 1200q0 33 14 68q12 31 37 55.5t55.5 36.5t65.5 12q37 0 68 -12q27 -10 53 -37q25 -25 37 -55 q14 -35 14 -68q0 -29 -14 -65q-12 -31 -37 -56q-27 -27 -53 -37q-37 -14 -68 -14t-66 14q-31 12 -55 37t-37 56q-14 36 -14 65z" />
<glyph unicode="j" horiz-adv-x="1599" d="M0 1026q0 102 29 162q33 70 77 106q47 39 111 58q61 18 125 18h342q68 0 127 -20q63 -23 109 -62q47 -41 77 -106q29 -59 29 -156v-170q66 0 127 -18q63 -18 111 -58q45 -37 77 -106q29 -59 29 -160q0 -98 -29 -158q-31 -66 -77 -106q-45 -39 -111 -60q-68 -20 -127 -20 h-170q-37 0 -68 -12q-27 -10 -53 -37t-37 -53q-14 -35 -14 -68q-74 0 -133 27q-63 29 -108.5 73.5t-73.5 108.5q-27 59 -27 133v172q0 59 10 94q12 41 31 76h-41q-57 0 -125 21q-59 18 -111 59q-45 37 -77 106q-29 60 -29 156zM170 1026q0 -6 4 -43q4 -31 18.5 -57.5 t51.5 -48.5q33 -20 98 -21h172q84 0 156 -37q70 -37 118 -100q33 27 50 59q18 37 18 78v170q0 55 -18 90q-20 39 -43 53q-29 18 -56 25q-20 4 -55 4h-342q-65 0 -98 -18q-37 -20 -51 -47q-16 -29 -19 -56q-4 -41 -4 -51zM514 342q0 -41 18 -78q18 -35 50 -57q45 59 118 98 q70 37 156 37h170q39 0 74 10q31 9 49 25t29 35q12 23 14 39q0 2 3 14t3 20v29q0 29 -2 49q-2 27 -18 55q-14 27 -52 48q-33 18 -100 18h-45q-20 -35 -53 -68q-35 -35 -70 -55q-39 -23 -82 -35t-92 -12q0 51 -25 90q-23 37 -67 60q-29 -18 -53 -54q-25 -37 -25 -96v-172z M1012 760l2 6l2 4l-2 -4z" />
<glyph unicode="k" horiz-adv-x="1525" d="M0 0v342l520 520q-4 29 -4 41q0 6 -1 17.5t-1 19.5q0 94 33 168q35 80 92 137q58 58 135 92q74 33 166 33q94 0 168 -33q80 -35 137.5 -92t91.5 -137q33 -74 33 -168q0 -92 -33 -166q-34 -77 -92 -135q-57 -57 -137 -92q-74 -33 -168 -33q-8 0 -19.5 1t-17.5 1 q-12 0 -41 4l-6 -6v-172h-172v-172h-170v-170h-514zM170 170h172v172h172v172h170v72l51 47l8 10l66 64l88 -19q8 -2 23 -2q2 0 9 -1t11 -1q59 0 102 21q49 23 82 55.5t56 81.5q18 39 18 98q0 61 -18 100q-23 49 -55.5 82t-82.5 56q-43 20 -102 20q-55 0 -98 -20 q-49 -23 -82 -55.5t-55 -82.5q-20 -43 -21 -100q0 -14 2 -20l6 -27l15 -88l-64 -62l-473 -473v-100zM856 940q0 37 24.5 61.5t59.5 24.5q37 0 61.5 -24.5t24.5 -61.5q0 -35 -24.5 -59.5t-61.5 -24.5q-35 0 -59.5 24.5t-24.5 59.5z" />
<glyph unicode="l" horiz-adv-x="1304" d="M0 256v600h858v86q0 57 -20 100q-23 49 -55.5 82t-82.5 56q-43 20 -100 20q-55 0 -98 -20q-49 -23 -82 -56q-35 -35 -58 -82q-20 -43 -20 -100h-170q0 90 33 168q31 74 92 135q57 57 137 92t166 35q88 0 168 -35q77 -34 135 -92q61 -61 92 -135q33 -78 33 -168v-686 q0 -59 -18 -98q-23 -49 -55.5 -82t-82.5 -56q-43 -20 -100 -20h-516q-55 0 -98 20q-49 23 -82 56t-56 82q-20 43 -20 98zM172 256q0 -35 25 -59q27 -27 59 -27h516q12 0 33 8q14 6 26 19q16 16 21 26q6 14 6 33v430h-686v-430zM428 428q0 35 27 61q25 25 59 25 q37 0 61.5 -24.5t24.5 -61.5q0 -35 -25 -59q-27 -27 -61 -27q-33 0 -59.5 26.5t-26.5 59.5z" />
<glyph unicode="m" horiz-adv-x="1667" d="M0 180v672l690 -324l682 324v-672h-1372zM0 1042v166h1372v-168l-684 -321z" />
<glyph unicode="n" horiz-adv-x="1323" d="M0 342v684q0 76 27 135q29 63 73.5 108.5t108.5 73.5q59 27 133 27h342q74 0 133 -27q63 -29 108.5 -73.5t73.5 -108.5q27 -59 27 -135v-684q0 -74 -27 -133q-29 -63 -73.5 -108.5t-108.5 -73.5q-59 -27 -133 -27h-342q-74 0 -133 27q-63 29 -108.5 73.5t-73.5 108.5 q-27 59 -27 133zM170 342h686v684q0 31 -14 68q-12 29 -35 55q-20 23 -55 37q-31 12 -68 12h-342q-35 0 -66 -12q-35 -14 -55 -37q-27 -31 -37 -55q-14 -37 -14 -68v-684zM426 170q0 -37 25 -61q27 -27 63 -27q35 0 61 27q25 25 25 61q0 39 -24.5 63.5t-61.5 24.5 q-18 0 -34.5 -6t-29 -18.5t-18.5 -29t-6 -34.5z" />
<glyph unicode="o" horiz-adv-x="1667" d="M0 0v856h1370v-856h-1370zM0 1026l170 344h428v-344h-598zM770 1026v344h428l172 -344h-600z" />
<glyph unicode="p" horiz-adv-x="1585" d="M0 0l2 485l784 787q51 51 115 76q65 25 129 24q68 0 129.5 -24.5t112.5 -75.5q53 -53 76 -113q25 -65 24.5 -129t-24.5 -129q-25 -63 -76 -115l-787 -786h-485zM180 422q29 25 56 33q35 10 61 10q31 0 61 -12q27 -10 54 -37q23 -23 37 -57.5t14 -63.5t-14 -66 q-14 -35 -37 -57h4l733 733l-242 244z" />
<glyph unicode="q" horiz-adv-x="1579" d="M0 432v428q0 94 33 168q35 80 92 137.5t137 91.5q74 33 166 33h428q104 0 203 -41q88 -37 161.5 -110.5t110.5 -161.5q41 -98 41 -201q0 -106 -41 -200.5t-110 -163.5q-74 -74 -162 -111q-98 -41 -203 -41h-342q-35 0 -65 -12q-35 -14 -56 -37q-27 -31 -37 -55 q-14 -37 -14 -66q-74 0 -133 27q-63 29 -108.5 74t-73.5 108q-27 59 -27 133zM170 432q0 -37 20 -78q16 -33 50 -59q49 63 118 100q72 37 156 37h342q72 0 135 29q68 31 109 71q43 43 74 111q27 59 26.5 133t-26.5 133q-29 63 -74 108.5t-109 74.5q-59 27 -135 26h-428 q-55 0 -98 -20q-49 -23 -82 -55.5t-55.5 -82t-22.5 -100.5v-428z" />
<glyph unicode="r" horiz-adv-x="1667" d="M0 170q0 31 14 68q14 35 35 55t55.5 34.5t65.5 14.5t68 -14q35 -14 55 -35t35 -55q14 -37 14 -68t-14.5 -65.5t-35 -55t-54.5 -35.5q-37 -14 -68 -14t-65.5 14.5t-55 35t-35 55t-14.5 65.5zM256 856v170q111 0 205 -26.5t184 -77.5q82 -47 155.5 -121t121.5 -156 q51 -90 77.5 -184t26.5 -205h-170q0 80 -22 160q-23 82 -60 143q-39 66 -94 121t-121 94q-61 37 -143 60q-80 22 -160 22zM256 1198v172q150 0 295 -41q147 -41 266 -112q133 -80 225 -173q94 -94 175 -227q72 -119 112.5 -264t40.5 -297h-172q0 133 -33 250 q-33 119 -96 225q-63 109 -147 193q-86 86 -191 147q-100 59 -225 94q-117 33 -250 33zM258 514v170q94 0 168 -33q77 -34 135.5 -92t91.5 -135q33 -74 33 -168h-172q0 61 -18 100q-23 49 -55.5 82t-82.5 56q-43 20 -100 20z" />
<glyph unicode="s" horiz-adv-x="1589" d="M0 856h514l170 514l172 -514h514l-424 -328l166 -528l-428 330l-428 -330l166 530z" />
<glyph unicode="t" d="M0 1028v172h170h172q0 33 14 68q12 31 37 55q20 20 55 34.5t66 14.5h342q33 0 68 -14q29 -12 55 -35q23 -20 37 -55q12 -31 12 -68h172h172v-172h-172v-772q0 -55 -20 -98q-23 -49 -55.5 -82t-82.5 -56q-43 -20 -100 -20h-514q-55 0 -98 20q-49 23 -82 56t-55.5 82 t-22.5 98v772h-170zM342 256q0 -12 8 -33q6 -14 18.5 -26.5t27 -18.5t32.5 -6h514q37 0 61.5 24.5t24.5 59.5v772h-686v-772zM428 428q0 14 8 35q6 16 17 26q12 12 28 19q14 6 32.5 6t33.5 -6q16 -6 28.5 -18.5t18.5 -26.5q6 -16 6 -34.5t-6 -33t-18.5 -27t-28.5 -18.5 q-20 -8 -32.5 -8t-33.5 8q-16 6 -28 19q-10 10 -17 26q-8 21 -8 33zM428 772q0 12 8 33q6 16 17 26q14 14 28.5 20.5t32.5 6.5t32.5 -6t28.5 -21q12 -12 18.5 -26t6.5 -32.5t-6 -33.5q-6 -16 -18.5 -28.5t-28.5 -18.5q-14 -6 -32.5 -6t-33.5 6q-16 6 -28 19q-8 8 -16.5 28.5 t-8.5 32.5zM772 428q0 18 6 35q6 14 18.5 26.5t26.5 18.5q16 6 33 6q20 0 34.5 -6t27 -18.5t18.5 -26.5q6 -16 6 -34.5t-6 -33t-18.5 -27t-26.5 -18.5q-20 -8 -35 -8q-12 0 -33 8q-14 6 -26.5 18.5t-18.5 27t-6 32.5zM772 772.5q0 18.5 6 32.5t19 26q16 16 26 21q16 6 33 6 q20 0 35 -6q10 -4 27 -21q12 -12 18 -26t6 -32.5t-6 -33.5q-6 -16 -18.5 -28.5t-26.5 -18.5t-35 -6q-16 0 -33 6q-14 6 -26.5 18.5t-18.5 28.5q-6 15 -6 33.5z" />
<glyph unicode="u" horiz-adv-x="1310" d="M0 170q0 -31 14.5 -65.5t35 -55t55 -35t65.5 -14.5h686q33 0 68 14q29 12 55 35q23 20 37 55q12 31 12 66q0 111 -39 203q-37 88 -110 162q-72 72 -164 110q-98 41 -201 41q-106 0 -200.5 -41t-164 -110.5t-108.5 -161.5q-41 -99 -41 -203zM256 1114q0 57 20 100 q23 49 56 82t82 56q43 20 100 20t100 -20q49 -23 82 -55.5t56 -82.5q18 -39 18 -100q0 -59 -18 -98q-23 -49 -56 -82q-37 -37 -82 -57q-43 -20 -100 -20.5t-100 20.5q-45 20 -82 57q-33 33 -56 82q-20 43 -20 98z" />
<glyph unicode="v" horiz-adv-x="1554" d="M0 704.5q0 73.5 27 133.5q29 63 73.5 108t108.5 74q59 27 133 27v-687q-74 0 -133 27q-63 29 -109 74q-43 43 -73 110q-27 60 -27 133.5zM514 360v687l342 170v-1027zM1026 360v172q16 0 23 3q4 2 10 3t10 1q25 8 51 24q20 12 41 37t29 47q8 25 8 58q0 31 -8 55 q-8 27 -29 49q-25 29 -41 39q-18 12 -51 22q-16 4 -20 4h-23v173q14 0 43 -5q25 -4 41 -8q55 -14 104 -45q51 -33 84 -74q35 -45 54 -98q18 -55 18 -112.5t-18 -112.5q-18 -53 -54 -98q-37 -45 -84 -76q-53 -35 -104 -47q-45 -11 -84 -11z" />
<glyph unicode="w" horiz-adv-x="1554" d="M0 598v172l201 86l10 27q2 4 5 12t5 12l-84 201l123 121l203 -80l24 8q16 8 25 10l86 203h170l88 -203l25 -10q4 -2 11 -5t11 -5l205 86l121 -123l-84 -207l10 -20l8 -25l207 -86v-172l-207 -86q0 -4 -4 -12t-4 -13q-4 -12 -8 -22l84 -205l-121 -121l-207 82l-10 -5 t-12 -5l-25 -8l-86 -205h-170l-86 203q-16 4 -49 20l-203 -84l-121 121l80 203l-20 51zM426 684q0 -55 20 -98q23 -49 56 -82t82 -55q43 -20 100 -20.5t100 20.5q46 22 80 55q33 33 56 82q20 43 20 98q0 57 -20 100q-23 49 -56 82q-34 34 -80 56q-43 20 -100 20t-100 -20 q-49 -23 -82 -55.5t-56 -82.5q-20 -43 -20 -100z" />
<glyph unicode="x" horiz-adv-x="1472" d="M0 326l360 358l-360 360l240 240l360 -358l361 358l239 -240l-360 -360l360 -358l-239 -240l-361 358l-360 -358z" />
<glyph unicode="y" horiz-adv-x="1558" d="M0 672l244 246l268 -269l616 617l244 -246l-860 -860z" />
<glyph unicode="z" horiz-adv-x="980" d="M0 342v942q0 37 24.5 61.5t61.5 24.5h512q37 0 61.5 -24.5t24.5 -61.5v-942q0 -74 -27 -133q-29 -63 -73.5 -108.5t-108.5 -73.5q-59 -27 -133 -27t-133 27q-63 29 -108.5 73.5t-73.5 108.5q-27 59 -27 133zM170 684h88q0 37 24.5 61.5t61.5 24.5t61.5 -24.5t24.5 -61.5 h84v514h-344v-514zM342 426q0 -35 24.5 -59.5t59.5 -24.5q20 0 35 6q16 6 28.5 18.5t18.5 28.5q6 14 6 31q0 39 -24.5 63.5t-63.5 24.5q-16 0 -31 -6q-16 -6 -28.5 -18.5t-18.5 -28.5q-6 -15 -6 -35z" />
<glyph unicode="{" d="M0 684q0 147 53 268q55 125 147.5 217.5t217.5 147.5q121 53 266 53l86 -86l-86 -86q-109 0 -199 -39q-94 -41 -163 -110q-72 -72 -111 -164q-41 -98 -41 -201q0 -98 41 -197q43 -100 111 -165l-107 -15l-14 -106q-96 96 -150 221q-51 121 -51 262zM598 86l86 84 q102 0 201 41q92 39 164 111q70 70 110 163q39 90 39 199q0 106 -39 197q-43 100 -110 168l104 14l16 106q96 -96 150 -223q51 -123 51 -262q0 -145 -53 -266q-55 -125 -147.5 -217t-217.5 -148q-121 -53 -268 -53z" />
<glyph unicode="|" horiz-adv-x="1540" d="M0 0l260 395q-39 59 -65 137q-25 74 -25 154q0 102 41 201q39 96 108 164q70 70 164 110q90 39 201 39h25q4 0 11 -2t11 -2q23 41 53 72q27 27 70 55q35 25 82 37q43 12 92 12q76 0 135 -26q63 -29 108.5 -74t74.5 -109q27 -59 26 -135q0 -49 -12 -92q-8 -29 -37 -82 q-20 -39 -55 -70q-43 -39 -74 -55q0 -4 2 -11t2 -9v-23q0 -109 -39 -199q-41 -94 -110 -163q-72 -72 -164 -111q-98 -41 -201 -41q-74 0 -152 23q-72 20 -135 65zM342 686q0 -74 27 -133q29 -63 73.5 -108.5t108.5 -73.5q59 -27 133 -27t133 27q63 29 108.5 73.5t73.5 108.5 q27 59 27 133q-16 0 -45 4t-43 8l-133 -135q-23 -23 -57 -37q-31 -12 -66 -12q-33 0 -64 12q-35 14 -57 37t-37 58q-12 31 -12 63q0 35 12 66q14 35 37 57l137 135q-4 14 -8 43t-4 43v2h-2q-74 0 -133 -26q-63 -29 -108.5 -74t-73.5 -109q-27 -59 -27 -135zM856 1028 q0 -29 14 -65q12 -31 37 -55.5t56 -37.5q37 -14 65 -14q33 0 68 14q27 10 53 37q25 25 37 56q14 37 14 65q0 33 -14 68q-10 27 -37 53.5t-53 36.5q-35 14 -68 14q-29 0 -65 -14q-31 -12 -56 -37q-27 -27 -37 -53q-14 -35 -14 -68z" />
<glyph unicode="}" horiz-adv-x="1536" d="M0 686l170 172v-4q-10 -31 -20 -82q-8 -39 -8.5 -86t8.5 -86q12 -57 20 -84v-2zM201 201v243l2 -2q23 -47 43 -73q33 -45 55.5 -67.5t67.5 -55.5q8 -6 71 -43l4 -2h-243zM201 930v241h243l-4 -2q-63 -37 -71 -43q-45 -33 -67.5 -55t-55.5 -67q-23 -31 -43 -72zM342 686 q0 70 28.5 133.5t73.5 108.5t109 73q59 27 133 27t133 -27q63 -29 108.5 -73.5t73.5 -108.5q27 -59 27 -133t-27 -133q-29 -63 -73.5 -108.5t-108 -74t-133.5 -28.5t-133.5 28.5t-108.5 73.5t-73.5 108.5t-28.5 133.5zM514 172h2q43 -16 84 -22q43 -6 86 -6.5t86 6.5 q37 6 82 22h2l-170 -172zM514 1200l172 172l170 -172h-2q-45 16 -82 23q-57 8 -86 8t-86 -8q-41 -6 -84 -23h-2zM930 201v2l74 43q37 25 67 55q23 23 55 68q20 27 43 73l2 2v-243h-241zM930 1171h241v-241l-2 2q-20 41 -43 72q-33 45 -55 67q-31 31 -67 55l-74 43v2z M1200 514v2q10 27 23 84q8 39 8 86t-8 86q-12 53 -23 82v4l172 -172z" />
<glyph unicode="~" horiz-adv-x="1585" d="M0 170v311l639 641l-127 127l121 121l127 -127l26 25q51 51 113 75q55 23 127 23q70 0 129 -23q63 -25 114.5 -75.5t76 -114t24.5 -127.5q0 -65 -24 -129q-23 -59 -76 -113l-27 -24l123 -123l-119 -123l-125 125l-637 -639h-315zM209 446q43 -2 86 -18q45 -16 78 -49 q37 -39 53 -84q16 -51 14 -96l564 561l-242 239z" />
<glyph unicode="&#xaa;" horiz-adv-x="1673" d="M0 0v1200h172v-1028h1028v1028h172v-1200h-1372zM258 342v172h170v-172h-170zM258 686v172h170v-172h-170zM342 1114v172q0 14 8 35q6 14 18.5 26.5t27 18.5t32.5 6q37 0 61.5 -24.5t24.5 -61.5v-172q0 -16 -6 -33q-6 -14 -18.5 -26.5t-26.5 -18.5q-20 -8 -35 -8 q-12 0 -33 8q-14 6 -26.5 18.5t-18.5 26.5q-8 21 -8 33zM600 342v172h172v-172h-172zM600 686v172h172v-172h-172zM858 1114v172q0 37 24.5 61.5t61.5 24.5q18 0 32.5 -6t27.5 -18q16 -16 20 -27q6 -14 6 -35v-172q0 -16 -6 -33q-4 -10 -20 -26q-12 -12 -27 -19 q-20 -8 -32.5 -8t-33.5 8q-16 6 -28.5 18.5t-18.5 26.5q-6 17 -6 33zM944 342v172h170zM944 686v172h170v-172h-170z" />
<glyph unicode="&#xad;" horiz-adv-x="1585" d="M0 559v344h1372v-344h-1372z" />
<glyph unicode="&#xb2;" horiz-adv-x="1554" d="M0 684q0 123 39 225q43 115 104 195q8 -6 25 -14q12 -6 27 -7q18 0 34 7q10 4 27 20q12 12 18.5 26.5t6.5 33t-5 26.5q-8 16 -14 25q68 55 158 94q86 37 180 49q4 -37 27 -57q27 -23 57.5 -23t56.5 23q23 20 27 55q100 -12 180 -47q84 -37 156 -92q-6 -6 -14 -23 q-6 -12 -7 -31q0 -33 27 -59.5t59 -26.5q16 0 29 7q16 8 25 14q70 -90 108 -193q39 -104 39 -227q0 -145 -53 -266q-55 -125 -147.5 -217t-217.5 -148q-121 -53 -268 -53q-145 0 -266 53q-125 55 -217 147.5t-148 217.5q-53 121 -53 266zM342 684q0 -74 27 -133 q29 -63 73.5 -108.5t108.5 -73.5q59 -27 133 -27t133 27q63 29 108.5 73.5t73.5 108.5q27 59 27 133q0 80 -25 135q-29 66 -75 109l-242 241l-242 -241q-45 -45 -73 -109q-27 -59 -27 -135zM514 684q0 33 14.5 67.5t35 55t54.5 35.5q37 14 66 14q33 0 67.5 -14.5t55 -35 t35 -55t14.5 -67.5q0 -29 -14 -66q-14 -35 -35 -55t-55.5 -34.5t-67.5 -14.5q-29 0 -66 14q-35 14 -55 35t-35 55q-14 37 -14 66z" />
<glyph unicode="&#xb3;" horiz-adv-x="1536" d="M0 684l684 686l686 -686l-242 -242l-272 273v-715h-342v715l-100 -101l-86 -86l-86 -86z" />
<glyph unicode="&#xb9;" horiz-adv-x="1585" d="M0 0v1030h342v342h1030v-1030h-342v-342h-1030zM172 172h686v170h-516v344h-170v-514zM514 514h686v516h-686v-516z" />
<glyph unicode="&#xba;" horiz-adv-x="1667" d="M0 0v856h1370v-856h-1370zM0 1026l170 344h428v-344h-598zM770 1026v344h428l172 -344h-600z" />
<glyph unicode="&#xc0;" horiz-adv-x="1589" d="M39 2179q0 145 53 266q55 127 147.5 219.5t219.5 147.5q121 53 266 53q98 0 184 -24q76 -23 162 -70q74 -41 139 -107q61 -61 109 -139q39 -66 68 -164q25 -86 24.5 -182t-24.5 -182q-29 -98 -68 -164q-47 -78 -109 -139q-66 -66 -139 -107q-86 -49 -164 -69 q-90 -25 -182 -25q-145 0 -266 53q-127 55 -219 147.5t-148 219.5q-53 121 -53 266zM211 2179q0 -86 24.5 -159.5t71.5 -139.5l715 717q-63 45 -137 70q-80 27 -160 26q-104 0 -198.5 -41t-164 -110.5t-110.5 -164t-41 -198.5zM428 1759q63 -45 139 -69q84 -27 158 -27 q106 0 200.5 41t164 110.5t110.5 163.5q39 90 39 201q0 80 -24 158q-25 76 -70 139zM0 1028v172h340v172h172v-172h342v172h172v-172h346v-172h-346h-172h-342h-172h-340zM172 0v170h1028l-170 -170h-858zM172 342v172h1028v-172h-1028zM172 686v172h1028v-172h-1028z" />
<glyph unicode="&#xc2;" horiz-adv-x="1589" d="M-2 2179q0 145 53 266q55 127 147.5 219.5t219.5 147.5q121 53 266 53t266 -53q127 -55 219.5 -147.5t147.5 -219.5q53 -121 53 -266q0 -96 -24 -182q-23 -80 -70 -164q-41 -74 -107 -139q-57 -57 -139 -107q-72 -43 -164 -69q-86 -25 -182 -25t-182 25q-92 27 -164 69 q-82 49 -139 107q-66 66 -107 139q-47 84 -69 164q-25 86 -25 182zM340 2179l342 -342v256h344v172h-344v258zM0 1028v172h340v172h172v-172h342v172h172v-172h346v-172h-346h-172h-342h-172h-340zM172 0v170h1028l-170 -170h-858zM172 342v172h1028v-172h-1028zM172 686 v172h1028v-172h-1028z" />
<glyph unicode="&#xc3;" horiz-adv-x="1589" d="M-2 1663v311l639 641l-127 127l121 121l127 -127l26 25q51 51 113 75q55 23 127 23q70 0 129 -23q63 -25 114.5 -75.5t76 -114t24.5 -127.5q0 -65 -24 -129q-23 -59 -76 -113l-27 -24l123 -123l-119 -123l-125 125l-637 -639h-315zM207 1939q43 -2 86 -18q45 -16 78 -49 q37 -39 53 -84q16 -51 14 -96l564 561l-242 239zM0 1028v172h340v172h172v-172h342v172h172v-172h346v-172h-346h-172h-342h-172h-340zM172 0v170h1028l-170 -170h-858zM172 342v172h1028v-172h-1028zM172 686v172h1028v-172h-1028z" />
<glyph unicode="&#xc8;" horiz-adv-x="1501" d="M43 2179q0 145 53 266q55 127 147.5 219.5t219.5 147.5q121 53 266 53q98 0 184 -24q76 -23 162 -70q74 -41 139 -107q61 -61 109 -139q39 -66 68 -164q25 -86 24.5 -182t-24.5 -182q-29 -98 -68 -164q-47 -78 -109 -139q-66 -66 -139 -107q-86 -49 -164 -69 q-90 -25 -182 -25q-145 0 -266 53q-127 55 -219 147.5t-148 219.5q-53 121 -53 266zM215 2179q0 -86 24.5 -159.5t71.5 -139.5l715 717q-63 45 -137 70q-80 27 -160 26q-104 0 -198.5 -41t-164 -110.5t-110.5 -164t-41 -198.5zM432 1759q63 -45 139 -69q84 -27 158 -27 q106 0 200.5 41t164 110.5t110.5 163.5q39 90 39 201q0 80 -24 158q-25 76 -70 139zM0 172v1028q0 33 14.5 68t36.5 55q29 25 53 35q35 14 68 14h1028v-172h172l-172 -174l170 -170h-170v-856h-1028q-33 0 -68 14q-27 10 -53 37t-37 53q-14 35 -14 68zM342 172h686v1028 h-686v-1028zM514 856v172h342v-172h-342z" />
<glyph unicode="&#xca;" horiz-adv-x="1501" d="M0 2179q0 145 53 266q55 127 147.5 219.5t219.5 147.5q121 53 266 53t266 -53q127 -55 219.5 -147.5t147.5 -219.5q53 -121 53 -266q0 -96 -24 -182q-23 -80 -70 -164q-41 -74 -107 -139q-57 -57 -139 -107q-72 -43 -164 -69q-86 -25 -182 -25t-182 25q-92 27 -164 69 q-82 49 -139 107q-66 66 -107 139q-47 84 -69 164q-25 86 -25 182zM342 2179l342 -342v256h344v172h-344v258zM0 172v1028q0 33 14.5 68t36.5 55q29 25 53 35q35 14 68 14h1028v-172h172l-172 -174l170 -170h-170v-856h-1028q-33 0 -68 14q-27 10 -53 37t-37 53 q-14 35 -14 68zM342 172h686v1028h-686v-1028zM514 856v172h342v-172h-342z" />
<glyph unicode="&#xe0;" horiz-adv-x="1673" d="M43 2179q0 145 53 266q55 127 147.5 219.5t219.5 147.5q121 53 266 53q98 0 184 -24q76 -23 162 -70q74 -41 139 -107q61 -61 109 -139q39 -66 68 -164q25 -86 24.5 -182t-24.5 -182q-29 -98 -68 -164q-47 -78 -109 -139q-66 -66 -139 -107q-86 -49 -164 -69 q-90 -25 -182 -25q-145 0 -266 53q-127 55 -219 147.5t-148 219.5q-53 121 -53 266zM215 2179q0 -86 24.5 -159.5t71.5 -139.5l715 717q-63 45 -137 70q-80 27 -160 26q-104 0 -198.5 -41t-164 -110.5t-110.5 -164t-41 -198.5zM432 1759q63 -45 139 -69q84 -27 158 -27 q106 0 200.5 41t164 110.5t110.5 163.5q39 90 39 201q0 80 -24 158q-25 76 -70 139zM0 0v1200h172v-1028h1028v1028h172v-1200h-1372zM258 342v172h170v-172h-170zM258 686v172h170v-172h-170zM342 1114v172q0 14 8 35q6 14 18.5 26.5t27 18.5t32.5 6q37 0 61.5 -24.5 t24.5 -61.5v-172q0 -16 -6 -33q-6 -14 -18.5 -26.5t-26.5 -18.5q-20 -8 -35 -8q-12 0 -33 8q-14 6 -26.5 18.5t-18.5 26.5q-8 21 -8 33zM600 342v172h172v-172h-172zM600 686v172h172v-172h-172zM858 1114v172q0 37 24.5 61.5t61.5 24.5q18 0 32.5 -6t27.5 -18 q16 -16 20 -27q6 -14 6 -35v-172q0 -16 -6 -33q-4 -10 -20 -26q-12 -12 -27 -19q-20 -8 -32.5 -8t-33.5 8q-16 6 -28.5 18.5t-18.5 26.5q-6 17 -6 33zM944 342v172h170zM944 686v172h170v-172h-170z" />
<glyph unicode="&#xe2;" horiz-adv-x="1673" d="M0 2179q0 145 53 266q55 127 147.5 219.5t219.5 147.5q121 53 266 53t266 -53q127 -55 219.5 -147.5t147.5 -219.5q53 -121 53 -266q0 -96 -24 -182q-23 -80 -70 -164q-41 -74 -107 -139q-57 -57 -139 -107q-72 -43 -164 -69q-86 -25 -182 -25t-182 25q-92 27 -164 69 q-82 49 -139 107q-66 66 -107 139q-47 84 -69 164q-25 86 -25 182zM342 2179l342 -342v256h344v172h-344v258zM0 0v1200h172v-1028h1028v1028h172v-1200h-1372zM258 342v172h170v-172h-170zM258 686v172h170v-172h-170zM342 1114v172q0 14 8 35q6 14 18.5 26.5t27 18.5 t32.5 6q37 0 61.5 -24.5t24.5 -61.5v-172q0 -16 -6 -33q-6 -14 -18.5 -26.5t-26.5 -18.5q-20 -8 -35 -8q-12 0 -33 8q-14 6 -26.5 18.5t-18.5 26.5q-8 21 -8 33zM600 342v172h172v-172h-172zM600 686v172h172v-172h-172zM858 1114v172q0 37 24.5 61.5t61.5 24.5 q18 0 32.5 -6t27.5 -18q16 -16 20 -27q6 -14 6 -35v-172q0 -16 -6 -33q-4 -10 -20 -26q-12 -12 -27 -19q-20 -8 -32.5 -8t-33.5 8q-16 6 -28.5 18.5t-18.5 26.5q-6 17 -6 33zM944 342v172h170zM944 686v172h170v-172h-170z" />
<glyph unicode="&#xe3;" horiz-adv-x="1673" d="M2 1663v311l639 641l-127 127l121 121l127 -127l26 25q51 51 113 75q55 23 127 23q70 0 129 -23q63 -25 114.5 -75.5t76 -114t24.5 -127.5q0 -65 -24 -129q-23 -59 -76 -113l-27 -24l123 -123l-119 -123l-125 125l-637 -639h-315zM211 1939q43 -2 86 -18q45 -16 78 -49 q37 -39 53 -84q16 -51 14 -96l564 561l-242 239zM0 0v1200h172v-1028h1028v1028h172v-1200h-1372zM258 342v172h170v-172h-170zM258 686v172h170v-172h-170zM342 1114v172q0 14 8 35q6 14 18.5 26.5t27 18.5t32.5 6q37 0 61.5 -24.5t24.5 -61.5v-172q0 -16 -6 -33 q-6 -14 -18.5 -26.5t-26.5 -18.5q-20 -8 -35 -8q-12 0 -33 8q-14 6 -26.5 18.5t-18.5 26.5q-8 21 -8 33zM600 342v172h172v-172h-172zM600 686v172h172v-172h-172zM858 1114v172q0 37 24.5 61.5t61.5 24.5q18 0 32.5 -6t27.5 -18q16 -16 20 -27q6 -14 6 -35v-172 q0 -16 -6 -33q-4 -10 -20 -26q-12 -12 -27 -19q-20 -8 -32.5 -8t-33.5 8q-16 6 -28.5 18.5t-18.5 26.5q-6 17 -6 33zM944 342v172h170zM944 686v172h170v-172h-170z" />
<glyph unicode="&#xe8;" horiz-adv-x="1495" d="M41 2179q0 145 53 266q55 127 147.5 219.5t219.5 147.5q121 53 266 53q98 0 184 -24q76 -23 162 -70q74 -41 139 -107q61 -61 109 -139q39 -66 68 -164q25 -86 24.5 -182t-24.5 -182q-29 -98 -68 -164q-47 -78 -109 -139q-66 -66 -139 -107q-86 -49 -164 -69 q-90 -25 -182 -25q-145 0 -266 53q-127 55 -219 147.5t-148 219.5q-53 121 -53 266zM213 2179q0 -86 24.5 -159.5t71.5 -139.5l715 717q-63 45 -137 70q-80 27 -160 26q-104 0 -198.5 -41t-164 -110.5t-110.5 -164t-41 -198.5zM430 1759q63 -45 139 -69q84 -27 158 -27 q106 0 200.5 41t164 110.5t110.5 163.5q39 90 39 201q0 80 -24 158q-25 76 -70 139zM0 170v1030q0 33 14 68q10 25 35 53q20 23 55 37t66 14h1030v-1372h-1030q-31 0 -65.5 14.5t-55 35t-35 55t-14.5 65.5zM342 170h686v1030h-170v-346l-174 172l-170 -170v344h-172v-1030z " />
<glyph unicode="&#xea;" horiz-adv-x="1495" d="M0 2179q0 145 53 266q55 127 147.5 219.5t219.5 147.5q121 53 266 53t266 -53q127 -55 219.5 -147.5t147.5 -219.5q53 -121 53 -266q0 -96 -24 -182q-23 -80 -70 -164q-41 -74 -107 -139q-57 -57 -139 -107q-72 -43 -164 -69q-86 -25 -182 -25t-182 25q-92 27 -164 69 q-82 49 -139 107q-66 66 -107 139q-47 84 -69 164q-25 86 -25 182zM342 2179l342 -342v256h344v172h-344v258zM0 170v1030q0 33 14 68q10 25 35 53q20 23 55 37t66 14h1030v-1372h-1030q-31 0 -65.5 14.5t-55 35t-35 55t-14.5 65.5zM342 170h686v1030h-170v-346l-174 172 l-170 -170v344h-172v-1030z" />
<glyph unicode="&#xec;" horiz-adv-x="858" d="M-301 2181q0 145 53 266q55 127 147.5 219.5t219.5 147.5q121 53 266 53q98 0 184 -24q76 -23 162 -70q74 -41 139 -107q61 -61 109 -139q39 -66 68 -164q25 -86 24.5 -182t-24.5 -182q-29 -98 -68 -164q-47 -78 -109 -139q-66 -66 -139 -107q-86 -49 -164 -69 q-90 -25 -182 -25q-145 0 -266 53q-127 55 -219 147.5t-148 219.5q-53 121 -53 266zM-129 2181q0 -86 24.5 -159.5t71.5 -139.5l715 717q-63 45 -137 70q-80 27 -160 26q-104 0 -198.5 -41t-164 -110.5t-110.5 -164t-41 -198.5zM88 1761q63 -45 139 -69q84 -27 158 -27 q106 0 200.5 41t164 110.5t110.5 163.5q39 90 39 201q0 80 -24 158q-25 76 -70 139zM0 0h686v172h-86q-18 0 -33 6q-16 6 -28.5 18.5t-18.5 29t-6 32.5v600h-514v-172h86q35 0 59.5 -24.5t24.5 -61.5v-342q0 -37 -24.5 -61.5t-59.5 -24.5h-86v-172zM170 1200q0 33 14 68 q12 31 37 55.5t55.5 36.5t65.5 12q37 0 68 -12q27 -10 53 -37q25 -25 37 -55q14 -35 14 -68q0 -29 -14 -65q-12 -31 -37 -56q-27 -27 -53 -37q-37 -14 -68 -14t-66 14q-31 12 -55 37t-37 56q-14 36 -14 65z" />
<glyph unicode="&#xee;" horiz-adv-x="858" d="M-342 2181q0 145 53 266q55 127 147.5 219.5t219.5 147.5q121 53 266 53t266 -53q127 -55 219.5 -147.5t147.5 -219.5q53 -121 53 -266q0 -96 -24 -182q-23 -80 -70 -164q-41 -74 -107 -139q-57 -57 -139 -107q-72 -43 -164 -69q-86 -25 -182 -25t-182 25q-92 27 -164 69 q-82 49 -139 107q-66 66 -107 139q-47 84 -69 164q-25 86 -25 182zM0 2181l342 -342v256h344v172h-344v258zM0 0h686v172h-86q-18 0 -33 6q-16 6 -28.5 18.5t-18.5 29t-6 32.5v600h-514v-172h86q35 0 59.5 -24.5t24.5 -61.5v-342q0 -37 -24.5 -61.5t-59.5 -24.5h-86v-172z M170 1200q0 33 14 68q12 31 37 55.5t55.5 36.5t65.5 12q37 0 68 -12q27 -10 53 -37q25 -25 37 -55q14 -35 14 -68q0 -29 -14 -65q-12 -31 -37 -56q-27 -27 -53 -37q-37 -14 -68 -14t-66 14q-31 12 -55 37t-37 56q-14 36 -14 65z" />
<glyph unicode="&#xf1;" horiz-adv-x="1323" d="M-172 1663v311l639 641l-127 127l121 121l127 -127l26 25q51 51 113 75q55 23 127 23q70 0 129 -23q63 -25 114.5 -75.5t76 -114t24.5 -127.5q0 -65 -24 -129q-23 -59 -76 -113l-27 -24l123 -123l-119 -123l-125 125l-637 -639h-315zM37 1939q43 -2 86 -18q45 -16 78 -49 q37 -39 53 -84q16 -51 14 -96l564 561l-242 239zM0 342v684q0 76 27 135q29 63 73.5 108.5t108.5 73.5q59 27 133 27h342q74 0 133 -27q63 -29 108.5 -73.5t73.5 -108.5q27 -59 27 -135v-684q0 -74 -27 -133q-29 -63 -73.5 -108.5t-108.5 -73.5q-59 -27 -133 -27h-342 q-74 0 -133 27q-63 29 -108.5 73.5t-73.5 108.5q-27 59 -27 133zM170 342h686v684q0 31 -14 68q-12 29 -35 55q-20 23 -55 37q-31 12 -68 12h-342q-35 0 -66 -12q-35 -14 -55 -37q-27 -31 -37 -55q-14 -37 -14 -68v-684zM426 170q0 -37 25 -61q27 -27 63 -27q35 0 61 27 q25 25 25 61q0 39 -24.5 63.5t-61.5 24.5q-18 0 -34.5 -6t-29 -18.5t-18.5 -29t-6 -34.5z" />
<glyph unicode="&#xf2;" horiz-adv-x="1667" d="M41 2179q0 145 53 266q55 127 147.5 219.5t219.5 147.5q121 53 266 53q98 0 184 -24q76 -23 162 -70q74 -41 139 -107q61 -61 109 -139q39 -66 68 -164q25 -86 24.5 -182t-24.5 -182q-29 -98 -68 -164q-47 -78 -109 -139q-66 -66 -139 -107q-86 -49 -164 -69 q-90 -25 -182 -25q-145 0 -266 53q-127 55 -219 147.5t-148 219.5q-53 121 -53 266zM213 2179q0 -86 24.5 -159.5t71.5 -139.5l715 717q-63 45 -137 70q-80 27 -160 26q-104 0 -198.5 -41t-164 -110.5t-110.5 -164t-41 -198.5zM430 1759q63 -45 139 -69q84 -27 158 -27 q106 0 200.5 41t164 110.5t110.5 163.5q39 90 39 201q0 80 -24 158q-25 76 -70 139zM0 0v856h1370v-856h-1370zM0 1026l170 344h428v-344h-598zM770 1026v344h428l172 -344h-600z" />
<glyph unicode="&#xf4;" horiz-adv-x="1667" d="M0 2179q0 145 53 266q55 127 147.5 219.5t219.5 147.5q121 53 266 53t266 -53q127 -55 219.5 -147.5t147.5 -219.5q53 -121 53 -266q0 -96 -24 -182q-23 -80 -70 -164q-41 -74 -107 -139q-57 -57 -139 -107q-72 -43 -164 -69q-86 -25 -182 -25t-182 25q-92 27 -164 69 q-82 49 -139 107q-66 66 -107 139q-47 84 -69 164q-25 86 -25 182zM342 2179l342 -342v256h344v172h-344v258zM0 0v856h1370v-856h-1370zM0 1026l170 344h428v-344h-598zM770 1026v344h428l172 -344h-600z" />
<glyph unicode="&#xf5;" horiz-adv-x="1667" d="M0 1663v311l639 641l-127 127l121 121l127 -127l26 25q51 51 113 75q55 23 127 23q70 0 129 -23q63 -25 114.5 -75.5t76 -114t24.5 -127.5q0 -65 -24 -129q-23 -59 -76 -113l-27 -24l123 -123l-119 -123l-125 125l-637 -639h-315zM209 1939q43 -2 86 -18q45 -16 78 -49 q37 -39 53 -84q16 -51 14 -96l564 561l-242 239zM0 0v856h1370v-856h-1370zM0 1026l170 344h428v-344h-598zM770 1026v344h428l172 -344h-600z" />
<glyph unicode="&#xf9;" horiz-adv-x="1310" d="M-129 2179q0 145 53 266q55 127 147.5 219.5t219.5 147.5q121 53 266 53q98 0 184 -24q76 -23 162 -70q74 -41 139 -107q61 -61 109 -139q39 -66 68 -164q25 -86 24.5 -182t-24.5 -182q-29 -98 -68 -164q-47 -78 -109 -139q-66 -66 -139 -107q-86 -49 -164 -69 q-90 -25 -182 -25q-145 0 -266 53q-127 55 -219 147.5t-148 219.5q-53 121 -53 266zM43 2179q0 -86 24.5 -159.5t71.5 -139.5l715 717q-63 45 -137 70q-80 27 -160 26q-104 0 -198.5 -41t-164 -110.5t-110.5 -164t-41 -198.5zM260 1759q63 -45 139 -69q84 -27 158 -27 q106 0 200.5 41t164 110.5t110.5 163.5q39 90 39 201q0 80 -24 158q-25 76 -70 139zM0 170q0 -31 14.5 -65.5t35 -55t55 -35t65.5 -14.5h686q33 0 68 14q29 12 55 35q23 20 37 55q12 31 12 66q0 111 -39 203q-37 88 -110 162q-72 72 -164 110q-98 41 -201 41 q-106 0 -200.5 -41t-164 -110.5t-108.5 -161.5q-41 -99 -41 -203zM256 1114q0 57 20 100q23 49 56 82t82 56q43 20 100 20t100 -20q49 -23 82 -55.5t56 -82.5q18 -39 18 -100q0 -59 -18 -98q-23 -49 -56 -82q-37 -37 -82 -57q-43 -20 -100 -20.5t-100 20.5q-45 20 -82 57 q-33 33 -56 82q-20 43 -20 98z" />
<glyph unicode="&#xfb;" horiz-adv-x="1310" d="M-172 2179q0 145 53 266q55 127 147.5 219.5t219.5 147.5q121 53 266 53t266 -53q127 -55 219.5 -147.5t147.5 -219.5q53 -121 53 -266q0 -96 -24 -182q-23 -80 -70 -164q-41 -74 -107 -139q-57 -57 -139 -107q-72 -43 -164 -69q-86 -25 -182 -25t-182 25q-92 27 -164 69 q-82 49 -139 107q-66 66 -107 139q-47 84 -69 164q-25 86 -25 182zM170 2179l342 -342v256h344v172h-344v258zM0 170q0 -31 14.5 -65.5t35 -55t55 -35t65.5 -14.5h686q33 0 68 14q29 12 55 35q23 20 37 55q12 31 12 66q0 111 -39 203q-37 88 -110 162q-72 72 -164 110 q-98 41 -201 41q-106 0 -200.5 -41t-164 -110.5t-108.5 -161.5q-41 -99 -41 -203zM256 1114q0 57 20 100q23 49 56 82t82 56q43 20 100 20t100 -20q49 -23 82 -55.5t56 -82.5q18 -39 18 -100q0 -59 -18 -98q-23 -49 -56 -82q-37 -37 -82 -57q-43 -20 -100 -20.5t-100 20.5 q-45 20 -82 57q-33 33 -56 82q-20 43 -20 98z" />
<glyph unicode="&#x153;" horiz-adv-x="3164" d="M1669 170v1030q0 33 14 68q10 25 35 53q20 23 55 37t66 14h1030v-1372h-1030q-31 0 -65.5 14.5t-55 35t-35 55t-14.5 65.5zM2011 170h686v1030h-170v-346l-174 172l-170 -170v344h-172v-1030zM0 0v856h1370v-856h-1370zM0 1026l170 344h428v-344h-598zM770 1026v344h428 l172 -344h-600z" />
<glyph unicode="&#x2c6;" d="M0 686q0 145 53 266q55 127 147.5 219.5t219.5 147.5q121 53 266 53t266 -53q127 -55 219.5 -147.5t147.5 -219.5q53 -121 53 -266q0 -96 -24 -182q-23 -80 -70 -164q-41 -74 -107 -139q-57 -57 -139 -107q-72 -43 -164 -69q-86 -25 -182 -25t-182 25q-92 27 -164 69 q-82 49 -139 107q-66 66 -107 139q-47 84 -69 164q-25 86 -25 182zM342 686l342 -342v256h344v172h-344v258z" />
<glyph unicode="&#x2dc;" horiz-adv-x="512" d="M-684 293v311l639 641l-127 127l121 121l127 -127l26 25q51 51 113 75q55 23 127 23q70 0 129 -23q63 -25 114.5 -75.5t76 -114t24.5 -127.5q0 -65 -24 -129q-23 -59 -76 -113l-27 -24l123 -123l-119 -123l-125 125l-637 -639h-315zM-475 569q43 -2 86 -18q45 -16 78 -49 q37 -39 53 -84q16 -51 14 -96l564 561l-242 239z" />
<glyph unicode="&#x2000;" horiz-adv-x="1433" />
<glyph unicode="&#x2001;" horiz-adv-x="2867" />
<glyph unicode="&#x2002;" horiz-adv-x="1433" />
<glyph unicode="&#x2003;" horiz-adv-x="2867" />
<glyph unicode="&#x2004;" horiz-adv-x="954" />
<glyph unicode="&#x2005;" horiz-adv-x="716" />
<glyph unicode="&#x2006;" horiz-adv-x="477" />
<glyph unicode="&#x2007;" horiz-adv-x="477" />
<glyph unicode="&#x2008;" horiz-adv-x="356" />
<glyph unicode="&#x2009;" horiz-adv-x="571" />
<glyph unicode="&#x200a;" horiz-adv-x="157" />
<glyph unicode="&#x2010;" horiz-adv-x="1585" d="M0 559v344h1372v-344h-1372z" />
<glyph unicode="&#x2011;" horiz-adv-x="1585" d="M0 559v344h1372v-344h-1372z" />
<glyph unicode="&#x2012;" horiz-adv-x="1585" d="M0 559v344h1372v-344h-1372z" />
<glyph unicode="&#x2013;" horiz-adv-x="1024" d="M0 559v344h811v-344h-811z" />
<glyph unicode="&#x2014;" horiz-adv-x="2048" d="M0 559v344h1835v-344h-1835z" />
<glyph unicode="&#x2018;" d="M0 686q0 145 53 266q55 127 147.5 219.5t219.5 147.5q121 53 266 53q98 0 184 -24q76 -23 162 -70q74 -41 139 -107q61 -61 109 -139q39 -66 68 -164q25 -86 24.5 -182t-24.5 -182q-29 -98 -68 -164q-47 -78 -109 -139q-66 -66 -139 -107q-86 -49 -164 -69 q-90 -25 -182 -25q-145 0 -266 53q-127 55 -219 147.5t-148 219.5q-53 121 -53 266zM172 686q0 -86 24.5 -159.5t71.5 -139.5l715 717q-63 45 -137 70q-80 27 -160 26q-104 0 -198.5 -41t-164 -110.5t-110.5 -164t-41 -198.5zM389 266q63 -45 139 -69q84 -27 158 -27 q106 0 200.5 41t164 110.5t110.5 163.5q39 90 39 201q0 80 -24 158q-25 76 -70 139z" />
<glyph unicode="&#x2019;" horiz-adv-x="1667" d="M0 180v514l514 512v-1026h-514zM856 180v514l514 512v-1026h-514z" />
<glyph unicode="&#x201c;" horiz-adv-x="1667" d="M0 180v514q0 104 41 199q43 98 109 164q70 70 163 110q90 39 201 39v-170q-74 0 -133 -26q-63 -29 -108.5 -74t-74 -108.5t-28.5 -133.5h344v-514h-514zM856 180v514q0 104 41 199q43 98 109 164q70 70 163 110q90 39 201 39v-170q-74 0 -133 -26q-63 -29 -108.5 -74 t-74 -108.5t-28.5 -133.5h344v-514h-514z" />
<glyph unicode="&#x201d;" horiz-adv-x="1667" d="M0 180v514q0 104 41 199q43 98 109 164q70 70 163 110q90 39 201 39v-170q-74 0 -133 -26q-63 -29 -108.5 -74t-74 -108.5t-28.5 -133.5h344v-514h-514zM856 180v514q0 104 41 199q43 98 109 164q70 70 163 110q90 39 201 39v-170q-74 0 -133 -26q-63 -29 -108.5 -74 t-74 -108.5t-28.5 -133.5h344v-514h-514z" />
<glyph unicode="&#x2026;" horiz-adv-x="4726" d="M3152 86q0 35 24.5 59.5t61.5 24.5q35 0 59.5 -24.5t24.5 -59.5q0 -37 -24.5 -61.5t-59.5 -24.5q-37 0 -61.5 24.5t-24.5 61.5zM3152 510v172h1370v-172h-1370zM3152 856v170h856v-170h-856zM3152 1198v172h1370v-172h-1370zM3494 86q0 16 6 33q6 14 18.5 26.5t28.5 18.5 q14 6 31 6q39 0 63.5 -24.5t24.5 -59.5q0 -20 -6 -34.5t-18.5 -27t-28.5 -18.5q-14 -6 -35 -6q-16 0 -31 6q-16 6 -28.5 18.5t-18.5 27t-6 34.5zM3836 86q0 33 27 59q25 25 59 25q37 0 61.5 -24.5t24.5 -59.5q0 -37 -24.5 -61.5t-61.5 -24.5q-35 0 -59 25q-27 26 -27 61z M1577 86q0 35 24.5 59.5t61.5 24.5q35 0 59.5 -24.5t24.5 -59.5q0 -37 -24.5 -61.5t-59.5 -24.5q-37 0 -61.5 24.5t-24.5 61.5zM1577 510v172h1370v-172h-1370zM1577 856v170h856v-170h-856zM1577 1198v172h1370v-172h-1370zM1919 86q0 16 6 33q6 14 18.5 26.5t28.5 18.5 q14 6 31 6q39 0 63.5 -24.5t24.5 -59.5q0 -20 -6 -34.5t-18.5 -27t-28.5 -18.5q-14 -6 -35 -6q-16 0 -31 6q-16 6 -28.5 18.5t-18.5 27t-6 34.5zM2261 86q0 33 27 59q25 25 59 25q37 0 61.5 -24.5t24.5 -59.5q0 -37 -24.5 -61.5t-61.5 -24.5q-35 0 -59 25q-27 26 -27 61z M0 86q0 35 24.5 59.5t61.5 24.5q35 0 59.5 -24.5t24.5 -59.5q0 -37 -24.5 -61.5t-59.5 -24.5q-37 0 -61.5 24.5t-24.5 61.5zM0 510v172h1370v-172h-1370zM0 856v170h856v-170h-856zM0 1198v172h1370v-172h-1370zM342 86q0 16 6 33q6 14 18.5 26.5t28.5 18.5q14 6 31 6 q39 0 63.5 -24.5t24.5 -59.5q0 -20 -6 -34.5t-18.5 -27t-28.5 -18.5q-14 -6 -35 -6q-16 0 -31 6q-16 6 -28.5 18.5t-18.5 27t-6 34.5zM684 86q0 33 27 59q25 25 59 25q37 0 61.5 -24.5t24.5 -59.5q0 -37 -24.5 -61.5t-61.5 -24.5q-35 0 -59 25q-27 26 -27 61z" />
<glyph unicode="&#x202f;" horiz-adv-x="571" />
<glyph unicode="&#x2039;" horiz-adv-x="1585" d="M0 686v170h86v430q0 16 6 32.5t18.5 29t29 18.5t32.5 6q37 0 61.5 -24.5t24.5 -61.5v-430h84v-170h-84v-600q0 -37 -24.5 -61.5t-61.5 -24.5q-16 0 -32.5 6t-29 18.5t-18.5 29t-6 32.5v600h-86zM514 342v172h86v772q0 35 27 62q25 25 59 24q37 0 61.5 -24.5t24.5 -61.5 v-772h86v-172h-86v-256q0 -37 -24.5 -61.5t-61.5 -24.5q-35 0 -59 25q-27 27 -27 61v256h-86zM1030 856v172h84v258q0 12 8 33q6 16 18.5 28.5t26.5 18.5q16 6 33 6q37 0 61.5 -24.5t24.5 -61.5v-258h86v-172h-86v-770q0 -37 -24.5 -61.5t-61.5 -24.5q-16 0 -33 6 q-14 6 -26.5 18.5t-18.5 28.5q-8 20 -8 33v770h-84z" />
<glyph unicode="&#x203a;" horiz-adv-x="1579" d="M0 0v170h1026v-170h-1026zM0 342v172h1370v-172h-1370zM0 856v170h856v-170h-856zM0 1198v172h1370v-172h-1370zM1198 86q0 33 27 59q25 25 59 25q37 0 61.5 -24.5t24.5 -59.5q0 -37 -24.5 -61.5t-61.5 -24.5q-35 0 -59 25q-27 26 -27 61z" />
<glyph unicode="&#x205f;" horiz-adv-x="716" />
<glyph unicode="&#xfb01;" horiz-adv-x="2390" d="M1532 0h686v172h-86q-18 0 -33 6q-16 6 -28.5 18.5t-18.5 29t-6 32.5v600h-514v-172h86q35 0 59.5 -24.5t24.5 -61.5v-342q0 -37 -24.5 -61.5t-59.5 -24.5h-86v-172zM1702 1200q0 33 14 68q12 31 37 55.5t55.5 36.5t65.5 12q37 0 68 -12q27 -10 53 -37q25 -25 37 -55 q14 -35 14 -68q0 -29 -14 -65q-12 -31 -37 -56q-27 -27 -53 -37q-37 -14 -68 -14t-66 14q-31 12 -55 37t-37 56q-14 36 -14 65zM0 283l391 391q-6 12 -26 92q-12 45 -13 96q0 104 41 199q41 96 109 160q74 70 162 108q94 41 198 41q102 0 196.5 -41t162.5 -108 q70 -70 108 -160q41 -94 41 -199q0 -102 -41 -196.5t-108.5 -162t-161.5 -108.5t-197 -41q-47 0 -98 11q-47 10 -90 26l-393 -391zM524 862.5q0 -71.5 27 -131t74 -106.5q43 -43 106 -72q59 -27 131 -27t131 27q63 29 107 72q47 47 74 106q25 55 24.5 131t-24.5 131 q-29 63 -74 109q-43 43 -107 72q-59 27 -130.5 26.5t-131.5 -26.5q-63 -29 -106 -72q-45 -45 -74 -109q-27 -59 -27 -130.5z" />
<glyph unicode="&#xfb02;" horiz-adv-x="2836" d="M1532 256v600h858v86q0 57 -20 100q-23 49 -55.5 82t-82.5 56q-43 20 -100 20q-55 0 -98 -20q-49 -23 -82 -56q-35 -35 -58 -82q-20 -43 -20 -100h-170q0 90 33 168q31 74 92 135q57 57 137 92t166 35q88 0 168 -35q77 -34 135 -92q61 -61 92 -135q33 -78 33 -168v-686 q0 -59 -18 -98q-23 -49 -55.5 -82t-82.5 -56q-43 -20 -100 -20h-516q-55 0 -98 20q-49 23 -82 56t-56 82q-20 43 -20 98zM1704 256q0 -35 25 -59q27 -27 59 -27h516q12 0 33 8q14 6 26 19q16 16 21 26q6 14 6 33v430h-686v-430zM1960 428q0 35 27 61q25 25 59 25 q37 0 61.5 -24.5t24.5 -61.5q0 -35 -25 -59q-27 -27 -61 -27q-33 0 -59.5 26.5t-26.5 59.5zM0 283l391 391q-6 12 -26 92q-12 45 -13 96q0 104 41 199q41 96 109 160q74 70 162 108q94 41 198 41q102 0 196.5 -41t162.5 -108q70 -70 108 -160q41 -94 41 -199 q0 -102 -41 -196.5t-108.5 -162t-161.5 -108.5t-197 -41q-47 0 -98 11q-47 10 -90 26l-393 -391zM524 862.5q0 -71.5 27 -131t74 -106.5q43 -43 106 -72q59 -27 131 -27t131 27q63 29 107 72q47 47 74 106q25 55 24.5 131t-24.5 131q-29 63 -74 109q-43 43 -107 72 q-59 27 -130.5 26.5t-131.5 -26.5q-63 -29 -106 -72q-45 -45 -74 -109q-27 -59 -27 -130.5z" />
<glyph unicode="&#xfb03;" horiz-adv-x="3921" d="M3064 0h686v172h-86q-18 0 -33 6q-16 6 -28.5 18.5t-18.5 29t-6 32.5v600h-514v-172h86q35 0 59.5 -24.5t24.5 -61.5v-342q0 -37 -24.5 -61.5t-59.5 -24.5h-86v-172zM3234 1200q0 33 14 68q12 31 37 55.5t55.5 36.5t65.5 12q37 0 68 -12q27 -10 53 -37q25 -25 37 -55 q14 -35 14 -68q0 -29 -14 -65q-12 -31 -37 -56q-27 -27 -53 -37q-37 -14 -68 -14t-66 14q-31 12 -55 37t-37 56q-14 36 -14 65zM1532 283l391 391q-6 12 -26 92q-12 45 -13 96q0 104 41 199q41 96 109 160q74 70 162 108q94 41 198 41q102 0 196.5 -41t162.5 -108 q70 -70 108 -160q41 -94 41 -199q0 -102 -41 -196.5t-108.5 -162t-161.5 -108.5t-197 -41q-47 0 -98 11q-47 10 -90 26l-393 -391zM2056 862.5q0 -71.5 27 -131t74 -106.5q43 -43 106 -72q59 -27 131 -27t131 27q63 29 107 72q47 47 74 106q25 55 24.5 131t-24.5 131 q-29 63 -74 109q-43 43 -107 72q-59 27 -130.5 26.5t-131.5 -26.5q-63 -29 -106 -72q-45 -45 -74 -109q-27 -59 -27 -130.5zM0 283l391 391q-6 12 -26 92q-12 45 -13 96q0 104 41 199q41 96 109 160q74 70 162 108q94 41 198 41q102 0 196.5 -41t162.5 -108q70 -70 108 -160 q41 -94 41 -199q0 -102 -41 -196.5t-108.5 -162t-161.5 -108.5t-197 -41q-47 0 -98 11q-47 10 -90 26l-393 -391zM524 862.5q0 -71.5 27 -131t74 -106.5q43 -43 106 -72q59 -27 131 -27t131 27q63 29 107 72q47 47 74 106q25 55 24.5 131t-24.5 131q-29 63 -74 109 q-43 43 -107 72q-59 27 -130.5 26.5t-131.5 -26.5q-63 -29 -106 -72q-45 -45 -74 -109q-27 -59 -27 -130.5z" />
<glyph unicode="&#xfb04;" horiz-adv-x="4368" d="M3064 256v600h858v86q0 57 -20 100q-23 49 -55.5 82t-82.5 56q-43 20 -100 20q-55 0 -98 -20q-49 -23 -82 -56q-35 -35 -58 -82q-20 -43 -20 -100h-170q0 90 33 168q31 74 92 135q57 57 137 92t166 35q88 0 168 -35q77 -34 135 -92q61 -61 92 -135q33 -78 33 -168v-686 q0 -59 -18 -98q-23 -49 -55.5 -82t-82.5 -56q-43 -20 -100 -20h-516q-55 0 -98 20q-49 23 -82 56t-56 82q-20 43 -20 98zM3236 256q0 -35 25 -59q27 -27 59 -27h516q12 0 33 8q14 6 26 19q16 16 21 26q6 14 6 33v430h-686v-430zM3492 428q0 35 27 61q25 25 59 25 q37 0 61.5 -24.5t24.5 -61.5q0 -35 -25 -59q-27 -27 -61 -27q-33 0 -59.5 26.5t-26.5 59.5zM1532 283l391 391q-6 12 -26 92q-12 45 -13 96q0 104 41 199q41 96 109 160q74 70 162 108q94 41 198 41q102 0 196.5 -41t162.5 -108q70 -70 108 -160q41 -94 41 -199 q0 -102 -41 -196.5t-108.5 -162t-161.5 -108.5t-197 -41q-47 0 -98 11q-47 10 -90 26l-393 -391zM2056 862.5q0 -71.5 27 -131t74 -106.5q43 -43 106 -72q59 -27 131 -27t131 27q63 29 107 72q47 47 74 106q25 55 24.5 131t-24.5 131q-29 63 -74 109q-43 43 -107 72 q-59 27 -130.5 26.5t-131.5 -26.5q-63 -29 -106 -72q-45 -45 -74 -109q-27 -59 -27 -130.5zM0 283l391 391q-6 12 -26 92q-12 45 -13 96q0 104 41 199q41 96 109 160q74 70 162 108q94 41 198 41q102 0 196.5 -41t162.5 -108q70 -70 108 -160q41 -94 41 -199 q0 -102 -41 -196.5t-108.5 -162t-161.5 -108.5t-197 -41q-47 0 -98 11q-47 10 -90 26l-393 -391zM524 862.5q0 -71.5 27 -131t74 -106.5q43 -43 106 -72q59 -27 131 -27t131 27q63 29 107 72q47 47 74 106q25 55 24.5 131t-24.5 131q-29 63 -74 109q-43 43 -107 72 q-59 27 -130.5 26.5t-131.5 -26.5q-63 -29 -106 -72q-45 -45 -74 -109q-27 -59 -27 -130.5z" />
</font>
</defs>
</svg>
