<!DOCTYPE svg  PUBLIC '-//W3C//DTD SVG 1.1//EN'  'http://www.w3.org/Graphics/SVG/1.1/DTD/svg11.dtd'>
<svg xmlns="http://www.w3.org/2000/svg" xml:space="preserve" height="3220px" viewBox="0.2 0 2759.749 3220" width="2760px" version="1.1" y="0px" x="0px" xmlns:xlink="http://www.w3.org/1999/xlink" enable-background="new 0.2 0 2759.749 3220">
<g fill="#fff">
	<path d="m1980 0v390c0 160-62.01 310-180 420l-1100 1100c-190 200-280 400-300 700h-399.8l600 600 600-600h-399.8c9.961-139.7 67.97-280 170-380l1100-1100c200-190 300-450 300-710v-390h-400l10-30z"/>
	<path d="m2380 2600c-10.94-250-110-480-290-660l-219.9-220-300 300 219.9 220c100 100 160.1 239.7 169.8 380h-400l600 600 600-600h-400l20.02-20.02z"/>
</g>
</svg>
