<!DOCTYPE svg  PUBLIC '-//W3C//DTD SVG 1.1//EN'  'http://www.w3.org/Graphics/SVG/1.1/DTD/svg11.dtd'>
<svg xmlns="http://www.w3.org/2000/svg" xml:space="preserve" height="1224px" viewBox="-7000 0 14000 1224.296" width="1.4e4px" version="1.1" y="0px" x="0px" xmlns:xlink="http://www.w3.org/1999/xlink" enable-background="new -7000 0 14000 1224.296">
<path d="m-6762 871.3c0 27.45 2.189 52.56 6.57 75.34 4.38 22.58 12.65 41.66 24.82 57.04 12.17 15.48 28.42 27.64 48.86 36.4 20.39 8.955 46.04 13.24 77.04 13.24 36.45 0 69.26-11.68 98.56-35.43s43.85-60.55 43.85-110.2c0-26.48-3.602-49.45-10.76-68.62-7.106-19.18-18.93-36.5-35.48-51.88-16.55-15.57-38.5-29.59-65.51-42.25-27.11-12.85-60.5-25.8-100.3-39.03-52.9-17.81-98.75-36.99-137.3-58.02-38.64-20.93-70.96-45.56-96.85-73.64-26.04-28.13-45.07-60.74-57.24-97.68-12.17-36.99-18.2-79.77-18.2-128.4 0-117 32.56-204.2 97.63-261.6 65.12-57.43 154.6-86.34 268.4-86.34 53.05 0 101.9 5.889 146.6 17.42 44.73 11.58 83.32 30.42 115.9 56.36 32.61 25.89 58.02 59.09 76.27 99.34 18.15 40.4 27.21 88.63 27.21 144.9v33.1h-228.6c0-56.21-9.977-99.68-29.79-130.1-19.95-30.37-53.05-45.56-99.38-45.56-26.52 0-48.62 3.894-66.29 11.68-17.62 7.787-31.78 18.06-42.24 30.71s-17.62 27.3-21.51 43.85c-3.894 16.65-5.791 33.78-5.791 51.4 0 36.4 7.689 67.12 23.12 91.89 15.48 24.82 48.62 47.79 99.48 68.82l183.8 79.43c45.26 19.81 82.25 40.54 111 62.1 28.72 21.61 51.64 44.73 68.67 69.55 17.04 24.82 29.01 52.18 35.58 81.96 6.619 29.79 9.978 62.88 9.978 99.29 0 125-36.16 215.7-108.4 272.6-72.37 56.85-173.1 85.27-302.3 85.27-134.8 0-231-29.2-289.1-87.9-57.87-58.79-86.88-142.3-86.88-251.6v-48.09h238.5v34.95z" fill="#5D504F"/>
<path d="m-6107 367c8.273-75.63 26.52-140.5 54.75-194.6 28.08-54.12 68.67-96.42 121.7-126.7 53-30.37 123-45.7 213-45.7 89.41 0 160.7 15.14 213.7 45.56 53 30.37 93.59 72.66 121.7 126.7 28.23 54.12 46.38 119 54.75 194.6 8.273 75.63 12.46 158.2 12.46 247.6 0 90.43-4.186 173.4-12.46 248.3-8.274 75.15-26.52 139.8-54.75 193.8-28.08 54.12-68.67 95.59-121.7 124.3-53 28.62-124.3 43.02-213.7 43.02-89.36 0-160.7-14.41-213.7-43.02-53.05-28.72-93.59-70.18-121.7-124.3-28.18-54.02-46.33-118.7-54.7-193.8-9.734-74.76-13.82-157.7-13.82-248.1 0-89.41 4.088-172 12.36-247.6l3-0.5zm232 450.4c3.845 55.78 11.54 101.1 23.22 135.9 11.53 34.65 28.08 60.16 49.74 76.12 21.51 15.96 49.94 23.94 85.32 23.94 35.28 0 63.76-7.981 85.17-23.94 21.56-15.96 38.11-41.47 49.74-76.12 11.68-34.85 19.37-80.21 23.22-135.9 3.894-55.68 5.792-123.3 5.792-202.9 0-79.53-1.996-146.9-5.792-202-3.845-55.34-11.54-100.5-23.22-135.8-11.53-35.28-28.08-60.89-49.74-76.95-21.51-15.96-49.89-24.04-85.17-24.04-35.38 0-63.81 8.079-85.32 24.04-21.56 16.06-38.11 41.76-49.74 76.95-11.68 35.38-19.37 80.65-23.22 135.8-3.894 55.19-5.792 122.5-5.792 202 0 79.53 1.996 147.2 5.986 202.7v0.5z" fill="#5D504F"/>
<path d="m-4813 23.22l168.9 834.7h3.31l170.5-834.7h352.8v1182h-218.7v-943h-3.31l-210.3 944.2h-185.5l-210.4-944.2h-3.262v944.2h-220.3v-1183h354.8l-1 0.22z" fill="#5D504F"/>
<path d="m-3286 218.7h-422.3v278.2h397.5v195.5h-397.5v317.9h439v195.5h-677.4v-1183h660.8v195.7z" fill="#5D504F"/>
<path d="m-2313 23.22c99.38 0 176.6 25.11 231.9 75.34 55.24 50.37 82.84 126.7 82.84 229.4 0 79.58-16.01 144.5-48.04 194.7-31.98 50.23-81.72 82.5-149.1 96.85v3.31c59.57 8.857 103.2 28.08 130.8 58.02 27.64 29.79 44.78 77.77 51.35 144 2.19 22.19 3.894 46.14 4.964 72.03 1.12 26.09 2.239 55.1 3.311 87.02 2.189 62.88 5.5 111 9.977 144.1 6.668 33.19 20.93 55.87 43.02 67.94v10.03h-258.1c-12.17-16.55-19.86-35.53-23.26-57.14-3.261-21.51-5.451-43.8-6.571-67.07l-6.57-226.9c-2.189-46.33-13.87-82.74-34.8-109.4-20.93-26.48-56.31-39.62-105.9-39.62h-127.5v500.2h-238.5v-1184h440.5l1 1.22zm-102 516.8c57.38 0 101.6-13.43 132.4-40.54 30.9-27.01 46.38-72.57 46.38-136.6 0-109.4-55.24-164.1-165.7-164.1h-112.6v341.3h98.7l2-0.1z" fill="#5D504F"/>
<path d="m-1307 23.22l313 1182h-248.5l-54.61-250.2h-314.7l-54.66 250.2h-248.5l313-1182h296zm-32 737.1l-114.2-531.6h-3.406l-114.2 531.6h232.3-1z" fill="#5D504F"/>
<path d="m-348.2 833.2h3.31v-810h218.6v1182h-271.1l-291.5-828.2h-3.261v828.2h-218.6v-1182h274.9l287.1 810.2h0.6z" fill="#5D504F"/>
<path d="m441.2 23.22c82.84 0 149.6 13.58 200.4 40.59 50.81 27.01 90.33 65.66 118.4 115.9 28.13 50.32 47.31 110.6 57.14 181.3 9.831 70.67 15.96 149.8 15.96 237 0 103.8-6.326 194.1-18.98 270.8-12.65 76.9-34.56 140-65.41 189.6-30.95 49.64-72.42 86.63-124.2 111-51.98 24.24-117.6 36.4-197.2 36.4h-375.9v-1182h390.7l-0.9 0.22zm-45.8 1008c41.95 0 75.54-7.106 101-21.51 25.31-14.41 45.56-38.16 60.35-71.25 14.89-33.1 24.92-76.8 29.88-130.8 4.965-53.93 7.495-121.5 7.495-202 0-67.36-2.239-126.4-6.619-177.2-4.478-50.76-13.63-93.01-27.26-126.7-13.92-33.73-34.36-59.13-61.32-76.27-27.06-17.13-63.27-25.7-108.6-25.7h-101.1v831.5h105.7 0.4z" fill="#5D504F"/>
<path d="m977.5 367c8.178-75.63 26.57-140.5 54.7-194.6 28.04-54.12 68.62-96.42 121.8-126.7 53-30.56 125-45.7 214-45.7 89.75 0 160.6 15.14 213.8 45.56 53.15 30.37 93.44 72.66 121.8 126.7 28.13 54.12 46.33 119 54.61 194.6 8.273 75.63 12.46 158.2 12.46 247.6 0 90.43-4.188 173.4-12.46 248.3-8.273 75.15-26.48 139.8-54.61 193.8-28.23 54.12-68.62 95.59-121.8 124.3-53.15 28.62-124.2 43.02-213.8 43.02-89.46 0-160.6-14.41-213.7-43.02-53.05-28.72-93.54-70.18-121.8-124.3-28.13-54.02-46.53-118.7-54.7-193.8-8.371-74.95-12.36-157.9-12.36-248.3-2.045-89.21 1.946-171.9 9.928-247.4l2.7-0.5zm232.5 450.4c3.698 55.78 11.49 101.1 23.07 135.9 11.58 34.65 28.13 60.16 49.64 76.12 21.61 15.96 50.03 23.94 85.27 23.94 35.33 0 63.76-7.981 85.17-23.94 21.61-15.96 38.25-41.47 49.84-76.12 11.48-34.85 19.18-80.21 23.07-135.9s5.744-123.3 5.744-202.9c0-79.53-1.852-146.9-5.744-202-3.893-55.34-11.58-100.5-23.07-135.8-11.59-35.28-28.23-60.89-49.84-76.95-21.41-15.96-49.84-24.04-85.17-24.04-35.24 0-63.76 8.079-85.27 24.04-21.51 16.06-38.06 41.76-49.64 76.95-11.58 35.38-19.37 80.65-23.07 135.8-3.894 55.19-5.938 122.5-5.938 202 0 79.53 2.045 147.2 5.938 202.7v0.5z" fill="#5D504F"/>
<path d="m2270 23.22l168.8 834.7h3.311l170.6-834.7h352.9v1182h-218.7v-943h-3.211l-210.4 944.2h-185.4l-211-944h-3.311v944.2h-218.5v-1183h353.7v0.22z" fill="#5D504F"/>
<path d="m3934 23.22c82.84 0 149.6 13.58 200.4 40.59 50.81 27.01 90.33 65.66 118.4 115.9 28.13 50.32 47.31 110.6 57.14 181.3s14.89 149.7 14.89 236.9c0 103.8-6.328 194-19.08 270.8-12.65 76.8-34.46 139.9-65.41 189.5-30.95 49.84-72.32 86.83-124.2 111.1-51.88 24.24-117.6 36.4-197 36.4h-376v-1182h398.7l-8 0.22zm-40 1008c41.86 0 75.54-7.106 101-21.51 25.31-14.41 45.56-38.16 60.35-71.25 14.8-33.1 24.82-76.8 29.78-130.8 5.062-53.93 7.496-121.5 7.496-202 0-67.36-2.238-126.4-6.523-177.2-4.477-50.76-13.72-93.01-27.35-126.7-13.92-33.73-34.36-59.13-61.32-76.27-26.96-17.13-63.17-25.7-108.5-25.7h-99.68v831.5h109.6-4z" fill="#5D504F"/>
<path d="m4711 848.1c0 29.88 1.945 57.14 5.84 82.06 3.797 24.72 10.9 46.33 21.51 64.44 10.41 18.3 24.82 32.61 43.12 43.22 18.3 10.42 41.08 15.57 68.72 15.57 28.62 0 51.98-5.159 69.5-15.57 17.72-10.51 31.64-24.92 42.25-43.22 10.42-18.2 17.72-39.72 21.51-64.44 3.895-24.92 5.938-52.18 5.938-82.06v-824.9h238.5v824.8c0 75.15-10.41 137.2-31.44 186.3-20.93 49.25-49.16 88.19-84.59 116.8-35.24 28.81-75.54 48.09-120.9 58.02-45.17 9.929-92.08 14.8-140.7 14.8-48.57 0-95.59-4.38-140.9-13.24-45.17-8.857-85.46-26.86-120.9-53.83-35.43-26.96-63.56-65.32-84.49-115.2-21.03-49.64-31.34-114.2-31.34-193.7v-825.7h238.5v824.9l-1 0.6z" fill="#5D504F"/>
<path d="m5778 23.22c82.74 0 149.5 13.58 200.3 40.59 50.81 27.01 90.33 65.66 118.5 115.9 28.13 50.32 47.21 110.6 57.14 181.3 9.83 70.67 9.928 149.8 9.928 237 0 103.8-6.229 194.1-19.08 270.8-12.65 76.9-34.46 140-65.31 189.6-31.05 49.64-72.32 86.63-124.2 111-51.88 24.24-117.7 36.4-197.1 36.4h-375.9v-1182h398.6l-3 0.22zm-50 1008c41.86 0 75.54-7.106 101-21.51 25.31-14.41 45.56-38.16 60.35-71.25 14.89-33.1 24.82-76.8 29.79-130.8 5.061-53.93 7.494-121.5 7.494-202 0-67.36-2.24-126.4-6.521-177.2-4.477-50.76-13.63-93.01-27.35-126.7-13.92-33.73-34.27-59.13-61.23-76.27-27.06-17.13-63.27-25.7-108.6-25.7h-101v831.5h109.6-3z" fill="#5D504F"/>
<path d="m6983 218.7h-422.4v278.2h397.4v195.5h-397.4v317.9h439v195.5h-677.5v-1183h660.9v195.7z" fill="#5D504F"/>
</svg>
